
<svg width="158" height="120" viewBox="0 0 158 120" fill="none" xmlns="http://www.w3.org/2000/svg">
<g clip-path="url(#clip0)">
<path d="M33.0814 7.29214L24.7384 7.29214C22.1484 5.2674 18.8715 4.05255 15.3304 4.05255L33.0814 4.05255L33.0814 7.29214Z" fill="#373A3E"/>
<path d="M24.7382 31.5892C22.1401 33.6221 18.8804 34.8288 15.3302 34.8288C6.86623 34.8288 -0.000165077 27.9366 -0.000164706 19.4408C-0.000164334 10.945 6.86623 4.05273 15.3302 4.05273C18.8723 4.05273 22.1482 5.26758 24.7382 7.29232C28.3449 10.1108 30.6606 14.5085 30.6606 19.4408C30.6606 24.3731 28.3449 28.7708 24.7382 31.5892ZM15.3302 31.5892C22.011 31.5892 27.4331 26.1467 27.4331 19.4408C27.4331 12.7348 22.011 7.29232 15.3302 7.29232C8.64939 7.29232 3.22728 12.7348 3.22728 19.4408C3.22728 26.1467 8.64939 31.5892 15.3302 31.5892Z" fill="#4E5257"/>
<path d="M15.3304 34.8285C18.8806 34.8285 22.1403 33.6218 24.7384 31.5889L33.0814 31.5889L33.0814 34.8285L15.3304 34.8285Z" fill="#373A3E"/>
<path d="M50.0254 8.91182C50.0254 9.35726 49.6623 9.72171 49.2185 9.72171L41.1479 9.72171C40.7041 9.72171 41.1489 9.35726 41.1489 8.91181L41.1489 2.43264C41.1489 1.98719 40.7041 1.62274 41.1479 1.62274L49.2185 1.62274C49.6623 1.62274 50.0254 1.9872 50.0254 2.43264L50.0254 8.91182Z" fill="#CCD1D9"/>
<path d="M41.9558 11.3415L34.6951 11.3415C33.8075 11.3415 33.0813 10.6126 33.0813 9.72175L33.0813 7.29206L33.0813 4.05248L33.0813 1.62278C33.0813 0.731898 33.8075 0.00299037 34.6951 0.0029904L41.9558 0.00299072L41.9558 1.62278L41.9558 9.72176L41.9558 11.3415Z" fill="#4E5257"/>
<path d="M45.1842 4.05533L45.1842 3.24746C45.1842 2.79999 45.5453 2.43756 45.9911 2.43756C46.4369 2.43756 46.798 2.79999 46.798 3.24746L46.798 4.05533C46.798 4.5028 46.4369 4.86523 45.9911 4.86523C45.5453 4.86523 45.1842 4.5028 45.1842 4.05533Z" fill="#AAB2BD"/>
<path d="M41.149 10.5359L41.149 0.810019C41.149 0.362551 41.5101 0.000122015 41.9559 0.000122035C42.4017 0.000122055 42.7628 0.362551 42.7628 0.810019L42.7628 10.5359C42.7628 10.9833 42.4017 11.3458 41.9559 11.3458C41.5101 11.3458 41.149 10.9844 41.149 10.5359Z" fill="#4E5257"/>
<path d="M45.1842 8.10343L45.1842 7.29556C45.1842 6.84809 45.5453 6.48566 45.9911 6.48566C46.4368 6.48566 46.7979 6.84809 46.7979 7.29556L46.7979 8.10343C46.7979 8.5509 46.4368 8.91333 45.9911 8.91333C45.5453 8.91333 45.1842 8.5509 45.1842 8.10343Z" fill="#AAB2BD"/>
<path d="M41.1468 30.7808C41.1468 30.3354 41.5099 29.9709 41.9537 29.9709L49.2165 29.9709C49.6602 29.9709 50.0233 30.3354 50.0233 30.7808L50.0233 35.6402C50.0233 36.0857 49.6602 36.4501 49.2165 36.4501L41.9527 36.4501C41.5089 36.4501 41.1458 36.0857 41.1458 35.6402L41.1458 30.7808L41.1468 30.7808Z" fill="#CCD1D9"/>
<path d="M41.1479 36.4499L41.1479 29.9667C41.1479 29.5192 41.5089 29.1568 41.9547 29.1568C42.4005 29.1568 42.7616 29.5192 42.7616 29.9667L42.7616 36.4499C42.7616 36.8974 42.4005 37.2598 41.9547 37.2598C41.5089 37.2598 41.1479 36.8974 41.1479 36.4499Z" fill="#4E5257"/>
<path d="M45.1821 32.4024L45.1821 31.5945C45.1821 31.147 45.5432 30.7846 45.989 30.7846C46.4348 30.7846 46.7958 31.147 46.7958 31.5945L46.7958 32.4024C46.7958 32.8498 46.4348 33.2123 45.989 33.2123C45.5432 33.2123 45.1821 32.8498 45.1821 32.4024Z" fill="#AAB2BD"/>
<path d="M45.1821 34.8277L45.1821 34.0198C45.1821 33.5723 45.5432 33.2099 45.989 33.2099C46.4348 33.2099 46.7958 33.5723 46.7958 34.0198L46.7958 34.8277C46.7958 35.2751 46.4348 35.6376 45.989 35.6376C45.5432 35.6376 45.1821 35.2761 45.1821 34.8277Z" fill="#AAB2BD"/>
<path d="M41.9545 37.2604L34.6938 37.2604C33.8062 37.2604 33.08 36.5315 33.08 35.6406L33.08 34.8307L33.08 31.5911L33.08 30.7812C33.08 29.8903 33.8062 29.1614 34.6938 29.1614L41.9545 29.1614L41.9545 29.9713L41.9545 36.4505L41.9545 37.2604Z" fill="#4E5257"/>
<path d="M37.4112 32.2309C37.4112 31.7641 37.4135 31.2974 37.4094 30.8306C37.4085 30.7368 37.4353 30.7051 37.5323 30.7056C38.2554 30.7088 38.9786 30.7056 39.7017 30.7079C40.1277 30.7093 40.4743 31.0505 40.4766 31.4735C40.4803 32.1964 40.4761 32.9197 40.4798 33.6426C40.4803 33.7419 40.4443 33.763 40.3523 33.7626C39.4138 33.7598 38.4754 33.7594 37.5365 33.763C37.4302 33.7635 37.4085 33.7267 37.4094 33.6301C37.4135 33.1643 37.4112 32.6976 37.4112 32.2309Z" fill="#F5F7F9"/>
<path d="M38.5976 35.0336C38.5976 35.1982 38.5953 35.3624 38.5986 35.527C38.5999 35.5983 38.5805 35.6314 38.502 35.6309C38.1711 35.6282 37.8408 35.6282 37.5099 35.6309C37.4351 35.6314 37.4097 35.6056 37.4101 35.5307C37.4133 35.2019 37.4133 34.8727 37.4101 34.5439C37.4092 34.462 37.4401 34.4386 37.5187 34.439C37.8454 34.4423 38.1725 34.4418 38.4992 34.439C38.5755 34.4386 38.6004 34.4671 38.599 34.5402C38.5953 34.7044 38.5976 34.869 38.5976 35.0336Z" fill="#F5F7F9"/>
<path d="M35.5363 32.5695C35.68 32.5695 35.8094 32.5695 35.9392 32.5695C36.1624 32.5695 36.3851 32.5723 36.6083 32.5681C36.6901 32.5667 36.7252 32.5874 36.7243 32.6766C36.7201 33.0017 36.7206 33.3269 36.7238 33.6515C36.7247 33.737 36.6938 33.7637 36.6092 33.7623C36.2862 33.7582 35.9632 33.7605 35.6402 33.7609C35.5839 33.7609 35.5344 33.7646 35.5354 33.6814C35.5377 33.319 35.5363 32.9562 35.5363 32.5695Z" fill="#F5F7F9"/>
<path d="M35.5364 34.4509C35.5784 34.4463 35.6048 34.4408 35.6306 34.4403C35.9573 34.4399 36.284 34.4422 36.6107 34.4385C36.6962 34.4376 36.7248 34.4665 36.7239 34.5516C36.7202 34.8767 36.7243 35.2014 36.7197 35.5265C36.7193 35.561 36.6814 35.624 36.6615 35.624C36.4818 35.6221 36.2965 35.6345 36.1237 35.5945C35.7646 35.5118 35.5401 35.2055 35.5368 34.8395C35.5354 34.7135 35.5364 34.5875 35.5364 34.4509Z" fill="#F5F7F9"/>
<path d="M35.5418 31.8713C35.5418 31.7126 35.5321 31.559 35.5436 31.4073C35.5727 31.0311 35.899 30.7244 36.2769 30.7097C36.392 30.7056 36.5075 30.712 36.6226 30.7083C36.6951 30.706 36.7261 30.7309 36.7256 30.8072C36.7228 31.136 36.7242 31.4648 36.7251 31.7935C36.7251 31.8506 36.715 31.8897 36.6447 31.8892C36.2913 31.8874 35.9378 31.8874 35.5843 31.8864C35.5732 31.886 35.5626 31.8791 35.5418 31.8713Z" fill="#F5F7F9"/>
<path d="M39.8862 34.4399C40.0475 34.4399 40.2092 34.4427 40.3705 34.4385C40.4481 34.4367 40.4841 34.4597 40.479 34.542C40.4693 34.6979 40.4841 34.8579 40.455 35.0096C40.388 35.3559 40.096 35.5982 39.7421 35.6212C39.6233 35.629 39.5041 35.6249 39.3849 35.6295C39.3165 35.6323 39.2883 35.606 39.2888 35.5362C39.2906 35.2037 39.2911 34.8712 39.2888 34.5388C39.2883 34.4647 39.316 34.4371 39.3909 34.4385C39.5554 34.4422 39.7208 34.4399 39.8862 34.4399Z" fill="#F5F7F9"/>
</g>
<path d="M96.7745 19.3831H89.8171C89.1574 19.3831 88.6227 19.9179 88.6229 20.5776C88.623 21.2374 89.158 21.7722 89.8177 21.7722H96.7751C97.4349 21.7722 97.9695 21.2374 97.9694 20.5776C97.9692 19.9179 97.4342 19.3831 96.7745 19.3831Z" fill="#000929"/>
<path d="M63.4675 19.3707H56.5095C55.8498 19.3707 55.3151 19.9056 55.3153 20.5653C55.3154 21.225 55.8504 21.7599 56.5101 21.7599H63.4682C64.1279 21.7599 64.6626 21.225 64.6624 20.5653C64.6623 19.9056 64.1273 19.3707 63.4675 19.3707Z" fill="#000929"/>
<g filter="url(#filter0_d)">
<rect x="44" y="20.5289" width="87.7436" height="26.6364" rx="3" fill="#000929"/>
</g>
<path d="M55.9909 27.8652H98.627C99.4554 27.8652 100.127 28.5368 100.127 29.3652L100.13 38.6885C100.13 39.5169 99.4586 40.1885 98.6302 40.1885H55.9941C55.1657 40.1885 54.4939 39.5169 54.4937 38.6885L54.4913 29.3652C54.491 28.5368 55.1624 27.8652 55.9909 27.8652Z" fill="#1A2233" stroke="black"/>
<path d="M94.4558 29.6346H60.1553C59.0507 29.6346 58.1555 30.53 58.1558 31.6346L58.157 36.4178C58.1573 37.5224 59.053 38.4178 60.1576 38.4178H94.4581C95.5627 38.4178 96.4579 37.5224 96.4576 36.4178L96.4563 31.6346C96.4561 30.53 95.5604 29.6346 94.4558 29.6346Z" fill="#92A1A8"/>
<g filter="url(#filter1_d)">
<path d="M124.734 22.6607C118.711 19.2948 111.028 21.4629 107.664 27.4865L101.22 39.0185C101.218 39.0224 101.213 39.0236 101.209 39.0209C101.205 39.0182 101.2 39.0194 101.198 39.0234L70.0293 94.7422C69.2206 96.1879 69.7367 98.0155 71.1822 98.8246L87.8768 108.169C89.3231 108.979 91.1518 108.462 91.9606 107.015L123.112 51.2992C123.114 51.295 123.113 51.2896 123.109 51.2867C123.105 51.2839 123.104 51.2785 123.106 51.2742L129.55 39.7423C132.927 33.7116 130.751 26.0301 124.734 22.6607Z" fill="url(#paint0_linear)"/>
<path d="M124.734 22.6607C118.711 19.2948 111.028 21.4629 107.664 27.4865L101.22 39.0185C101.218 39.0224 101.213 39.0236 101.209 39.0209C101.205 39.0182 101.2 39.0194 101.198 39.0234L70.0293 94.7422C69.2206 96.1879 69.7367 98.0155 71.1822 98.8246L87.8768 108.169C89.3231 108.979 91.1518 108.462 91.9606 107.015L123.112 51.2992C123.114 51.295 123.113 51.2896 123.109 51.2867C123.105 51.2839 123.104 51.2785 123.106 51.2742L129.55 39.7423C132.927 33.7116 130.751 26.0301 124.734 22.6607Z" stroke="#BFC1C9" stroke-miterlimit="10"/>
</g>
<path d="M83.1691 92.8371C82.5739 92.5047 81.9803 92.1693 81.3822 91.8422C81.2619 91.7765 81.2405 91.7198 81.3102 91.5963C81.8294 90.6765 82.3403 89.752 82.8583 88.8315C83.1635 88.2892 83.8454 88.0902 84.3865 88.3886C85.311 88.8987 86.2304 89.4192 87.1549 89.9294C87.2819 89.9995 87.2832 90.0605 87.2171 90.1775C86.5452 91.3723 85.8762 92.5687 85.2122 93.7687C85.1371 93.9045 85.0747 93.906 84.9522 93.8361C84.3611 93.499 83.7643 93.1695 83.1691 92.8371Z" fill="white"/>
<path d="M98.3945 73.5852C98.416 73.6954 98.4374 73.8032 98.4578 73.9112C98.6357 74.8393 97.8978 75.8588 96.9157 76.0331C96.2248 76.1559 95.6105 75.9458 95.0379 75.5812C94.744 75.3938 94.4855 75.1667 94.2829 74.8765C93.7557 74.1206 93.8491 73.2729 94.4045 72.5526C94.6734 72.2034 94.7746 72.1517 95.4305 71.8934C95.312 71.8272 95.2149 71.7683 95.1137 71.718C95.0223 71.6724 95.017 71.6199 95.0631 71.5305C95.2998 71.0721 95.2981 71.0711 95.7484 71.3227C96.8755 71.9522 98.0022 72.5822 99.1296 73.2111C99.6627 73.5088 100.051 73.9212 100.149 74.5482C100.247 75.1743 100.052 75.7368 99.7186 76.2558C99.4992 76.5978 99.2238 76.8924 98.8915 77.1335C98.787 77.2089 98.7258 77.218 98.6558 77.0954C98.5847 76.9707 98.4916 76.8576 98.4163 76.7514C98.6406 76.5303 98.8706 76.3334 99.0636 76.1049C99.2936 75.8321 99.4489 75.5115 99.5116 75.1553C99.6029 74.6366 99.4208 74.2256 98.9991 73.9298C98.8078 73.7928 98.5898 73.6942 98.3945 73.5852ZM96.9012 72.7257C96.8958 72.7327 96.907 72.7196 96.9012 72.7257C96.7906 72.6716 96.6814 72.6152 96.5694 72.565C95.8444 72.2405 95.2889 72.3756 94.854 72.9792C94.4865 73.4898 94.4962 74.0881 94.9088 74.5574C95.0687 74.7395 95.2646 74.8984 95.4688 75.0287C95.8833 75.2934 96.3381 75.4461 96.8391 75.3495C97.3598 75.2491 97.6869 74.9154 97.8573 74.4231C98.0158 73.9643 97.887 73.5654 97.5595 73.2371C97.3651 73.0412 97.1168 72.9017 96.9012 72.7257Z" fill="white"/>
<path d="M93.2583 75.9115C92.6496 75.5715 92.0462 75.2345 91.4434 74.8978C91.2247 74.7757 91.2247 74.7757 91.3432 74.5636C91.5577 74.1794 91.5577 74.1794 91.9406 74.3932C93.5744 75.3057 95.2081 76.2181 96.8418 77.1306C97.0453 77.2442 97.0453 77.2442 96.9265 77.4554C96.7221 77.8174 96.7221 77.8174 96.367 77.6184C96.3148 77.5892 96.2626 77.5601 96.1835 77.5159C96.1923 77.5718 96.1904 77.5986 96.2008 77.6198C96.6886 78.6019 95.8797 80.1825 94.4632 80.1497C93.4619 80.127 92.6454 79.6895 92.0724 78.8724C91.4269 77.9522 91.7241 76.6432 92.6639 76.1369C92.8437 76.0409 93.0475 75.9901 93.2583 75.9115ZM94.8418 76.7665C94.446 76.5439 94.1059 76.4421 93.7594 76.4248C92.7387 76.3735 92.0784 77.3822 92.5335 78.2974C92.8702 78.9756 93.8378 79.516 94.5932 79.4485C95.4808 79.3691 96.0317 78.4129 95.653 77.6061C95.4664 77.2089 95.1397 76.9507 94.8418 76.7665Z" fill="white"/>
<path d="M91.2358 83.1738C91.8402 83.4471 92.4152 83.507 92.9571 83.1278C93.6751 82.6259 93.8566 81.9071 93.7113 81.0459C93.8982 81.0405 94.0787 81.03 94.2584 81.0361C94.2879 81.0371 94.3323 81.1145 94.3383 81.1603C94.4726 82.2009 94.1366 83.0545 93.284 83.6761C92.5521 84.2096 91.5328 84.1985 90.7213 83.6818C90.035 83.2452 89.5914 82.6511 89.5616 81.8104C89.5395 81.1874 89.754 80.6354 90.19 80.1909C90.7478 79.6219 91.4247 79.5531 92.1461 79.7945C92.3556 79.8643 92.5482 79.9851 92.7499 80.0799C92.8836 80.1422 92.8882 80.2221 92.8175 80.3473C92.3231 81.223 91.8348 82.1013 91.3444 82.9793C91.3122 83.0371 91.2803 83.0942 91.2358 83.1738ZM90.742 82.8307C90.7601 82.8176 90.772 82.8127 90.777 82.8038C91.1921 82.0647 91.606 81.325 92.0223 80.5865C92.0684 80.504 92.0366 80.47 91.9612 80.4356C91.303 80.1361 90.6617 80.3546 90.3213 80.9971C89.9876 81.6262 90.1745 82.4527 90.742 82.8307Z" fill="white"/>
<path d="M97.9125 71.2209C98.4676 71.4737 99.0042 71.5514 99.5256 71.2389C100.335 70.7545 100.533 69.9995 100.392 69.0912C100.575 69.0853 100.751 69.0755 100.927 69.0796C100.956 69.0802 101.003 69.1421 101.009 69.1806C101.153 70.1634 100.866 71.0022 100.087 71.6235C99.3171 72.2379 98.4647 72.2683 97.5977 71.8329C97.0071 71.5363 96.5663 71.0954 96.3402 70.459C95.9813 69.4484 96.5432 68.1706 97.5155 67.8153C98.0654 67.6144 98.5982 67.7141 99.1097 67.954C99.6052 68.1867 99.6028 68.1923 99.3396 68.6637C98.9013 69.4486 98.4634 70.233 98.0251 71.0179C97.9934 71.076 97.9609 71.1343 97.9125 71.2209ZM98.735 68.5465C98.1363 68.2052 97.3732 68.3071 96.9966 69.0422C96.6678 69.6849 96.8878 70.641 97.436 70.8729C97.867 70.101 98.2981 69.329 98.735 68.5465Z" fill="white"/>
<path d="M88.4269 85.606C89.188 86.0311 89.9511 86.4527 90.7087 86.8843C90.8511 86.9654 90.9165 86.964 91.0023 86.8063C91.3983 86.0751 91.8126 85.3541 92.2116 84.6245C92.2838 84.4925 92.3419 84.4793 92.4682 84.5522C92.8426 84.7675 92.8452 84.7627 92.6359 85.1375C92.1564 85.996 91.6746 86.8533 91.2007 87.7141C91.1285 87.8447 91.0735 87.8758 90.9322 87.7969C89.2172 86.8329 87.5002 85.8739 85.78 84.9193C85.6407 84.8423 85.6218 84.773 85.7081 84.6473C85.7686 84.5597 85.8207 84.4651 85.8641 84.368C85.9204 84.2424 85.9885 84.2403 86.1002 84.3034C86.8743 84.7412 87.6511 85.1727 88.4269 85.606Z" fill="white"/>
<path d="M98.8968 66.5391C98.4661 65.6317 98.4806 65.0072 98.9219 64.6585C99.0942 64.7549 99.2683 64.8523 99.4659 64.9628C99.43 65.027 99.398 65.0895 99.3612 65.1486C99.148 65.4926 99.1467 65.8514 99.2917 66.214C99.4996 66.7339 99.9024 67.076 100.368 67.3487C100.869 67.6423 101.38 67.9215 101.89 68.1997C102.009 68.2648 102.045 68.3258 101.961 68.4447C101.906 68.5222 101.858 68.6067 101.822 68.6945C101.759 68.8444 101.685 68.8596 101.542 68.7786C100.413 68.1397 99.2801 67.509 98.1487 66.8762C98.0661 66.83 97.9848 66.7799 97.8995 66.7384C97.8107 66.6949 97.7876 66.6426 97.8431 66.553C97.9113 66.4434 97.9758 66.331 98.0316 66.2146C98.0828 66.1094 98.1416 66.1129 98.2309 66.1651C98.4385 66.2866 98.6494 66.4007 98.8968 66.5391Z" fill="white"/>
<path d="M87.5879 93.3218C87.7978 93.4391 88.0055 93.5589 88.2178 93.6721C88.3097 93.721 88.3381 93.7694 88.2815 93.8692C88.0424 94.2892 87.8071 94.7105 87.5749 95.1343C87.5222 95.2301 87.4713 95.2442 87.376 95.1902C86.9591 94.9519 86.5392 94.7174 86.1176 94.4874C86.0126 94.4303 86.0047 94.3741 86.0612 94.2742C86.298 93.8599 86.5304 93.4424 86.7596 93.0238C86.8133 92.9263 86.8674 92.9148 86.9597 92.9686C87.1664 93.0903 87.378 93.2046 87.5879 93.3218Z" fill="white"/>
<path d="M82.2652 95.4711C82.3676 95.2879 82.4597 95.1229 82.5522 94.9573C82.7111 94.6727 82.8733 94.3907 83.027 94.1031C83.0834 93.9978 83.1348 93.9678 83.248 94.0325C83.6596 94.2694 84.0745 94.5003 84.4908 94.7274C84.6005 94.7872 84.6125 94.8456 84.5505 94.9525C84.3152 95.3614 84.0881 95.7749 83.8586 96.1871C83.8185 96.259 83.7879 96.3247 83.6825 96.2642C83.222 96.0032 82.7584 95.7466 82.2652 95.4711Z" fill="white"/>
<path d="M84.6635 96.8113C84.6876 96.7544 84.6993 96.7169 84.7172 96.6836C84.9493 96.2667 85.1849 95.8517 85.4129 95.4325C85.4726 95.3228 85.5299 95.3069 85.6377 95.3687C86.0497 95.605 86.4667 95.8309 86.878 96.0683C86.9216 96.0935 86.975 96.1867 86.9608 96.212C86.8304 96.4399 86.7143 96.685 86.5402 96.8769C86.1789 97.2758 85.6285 97.3441 85.1594 97.0875C84.9977 96.9995 84.8377 96.9086 84.6635 96.8113Z" fill="white"/>
<path d="M81.3756 94.9678C81.1732 94.8548 80.9705 94.7578 80.7852 94.635C80.3263 94.33 80.1675 93.6955 80.4179 93.203C80.4946 93.0533 80.5851 92.9106 80.6623 92.7613C80.7111 92.6671 80.7648 92.6453 80.8618 92.7003C81.2791 92.938 81.6993 93.1704 82.1193 93.4034C82.192 93.444 82.2346 93.4848 82.184 93.574C81.9299 94.0235 81.6781 94.4743 81.4252 94.9244C81.4167 94.9382 81.4003 94.9469 81.3756 94.9678Z" fill="white"/>
<path d="M87.7477 91.2561C87.8626 91.0505 87.9813 90.8462 88.0909 90.6376C88.1438 90.5373 88.1988 90.5077 88.3001 90.5728C88.492 90.6962 88.7066 90.7913 88.8794 90.9365C89.2732 91.2686 89.3743 91.8136 89.1515 92.2813C89.0769 92.4383 88.9867 92.5874 88.9077 92.7427C88.8625 92.8319 88.809 92.8492 88.7202 92.7988C88.2975 92.5597 87.8739 92.3223 87.4483 92.0884C87.3535 92.0363 87.3381 91.9813 87.3932 91.8868C87.515 91.6797 87.6299 91.4671 87.7477 91.2561Z" fill="white"/>
<path d="M121.84 40.5951C125.403 38.7409 126.788 34.3485 124.933 30.7844C123.078 27.2202 118.686 25.834 115.123 27.6882C111.56 29.5424 110.175 33.9348 112.03 37.4989C113.885 41.0631 118.277 42.4493 121.84 40.5951Z" fill="#FAFBFF" stroke="#000929" stroke-width="3" stroke-miterlimit="10"/>
<defs>
<filter id="filter0_d" x="40" y="20.5289" width="95.7436" height="34.6364" filterUnits="userSpaceOnUse" color-interpolation-filters="sRGB">
<feFlood flood-opacity="0" result="BackgroundImageFix"/>
<feColorMatrix in="SourceAlpha" type="matrix" values="0 0 0 0 0 0 0 0 0 0 0 0 0 0 0 0 0 0 127 0" result="hardAlpha"/>
<feOffset dy="4"/>
<feGaussianBlur stdDeviation="2"/>
<feColorMatrix type="matrix" values="0 0 0 0 0 0 0 0 0 0 0 0 0 0 0 0 0 0 0.25 0"/>
<feBlend mode="normal" in2="BackgroundImageFix" result="effect1_dropShadow"/>
<feBlend mode="normal" in="SourceGraphic" in2="effect1_dropShadow" result="shape"/>
</filter>
<filter id="filter1_d" x="45.687" y="16.0327" width="111.321" height="103.085" filterUnits="userSpaceOnUse" color-interpolation-filters="sRGB">
<feFlood flood-opacity="0" result="BackgroundImageFix"/>
<feColorMatrix in="SourceAlpha" type="matrix" values="0 0 0 0 0 0 0 0 0 0 0 0 0 0 0 0 0 0 127 0" result="hardAlpha"/>
<feOffset dy="2"/>
<feGaussianBlur stdDeviation="1"/>
<feColorMatrix type="matrix" values="0 0 0 0 0 0 0 0 0 0 0 0 0 0 0 0 0 0 0.25 0"/>
<feBlend mode="normal" in2="BackgroundImageFix" result="effect1_dropShadow"/>
<feBlend mode="normal" in="SourceGraphic" in2="effect1_dropShadow" result="shape"/>
</filter>
<linearGradient id="paint0_linear" x1="81.1431" y1="101.188" x2="122.728" y2="25.4998" gradientUnits="userSpaceOnUse">
<stop stop-color="#C7C9D1"/>
<stop offset="1" stop-color="#D0D1D7"/>
</linearGradient>
<clipPath id="clip0">
<rect width="37.2603" height="50.0254" fill="white" transform="translate(50.0254) rotate(90)"/>
</clipPath>
</defs>
</svg>
