
<svg width="118" height="117" viewBox="0 0 118 117" fill="none" xmlns="http://www.w3.org/2000/svg">
<path d="M56.7745 16.3831H49.8171C49.1574 16.3831 48.6227 16.9179 48.6229 17.5776C48.623 18.2374 49.158 18.7722 49.8177 18.7722H56.7751C57.4349 18.7722 57.9695 18.2374 57.9694 17.5776C57.9692 16.9179 57.4342 16.3831 56.7745 16.3831Z" fill="#000929"/>
<path d="M23.4675 16.3707H16.5095C15.8498 16.3707 15.3151 16.9056 15.3153 17.5653C15.3154 18.225 15.8504 18.7599 16.5101 18.7599H23.4682C24.1279 18.7599 24.6626 18.225 24.6624 17.5653C24.6623 16.9056 24.1273 16.3707 23.4675 16.3707Z" fill="#000929"/>
<g filter="url(#filter0_d)">
<rect x="4" y="17.5289" width="87.7436" height="26.6364" rx="3" fill="#000929"/>
</g>
<path d="M15.9909 24.8652H58.627C59.4554 24.8652 60.1272 25.5368 60.1274 26.3652L60.1298 35.6885C60.13 36.5169 59.4586 37.1885 58.6302 37.1885H15.9941C15.1657 37.1885 14.4939 36.5169 14.4937 35.6885L14.4913 26.3652C14.491 25.5368 15.1624 24.8652 15.9909 24.8652Z" fill="#1A2233" stroke="black"/>
<path d="M54.4558 26.6346H20.1553C19.0507 26.6346 18.1555 27.53 18.1558 28.6346L18.157 33.4178C18.1573 34.5224 19.053 35.4178 20.1576 35.4178H54.4581C55.5627 35.4178 56.4579 34.5224 56.4576 33.4178L56.4563 28.6346C56.4561 27.53 55.5604 26.6346 54.4558 26.6346Z" fill="#92A1A8"/>
<g filter="url(#filter1_d)">
<path d="M84.734 19.6607C78.7106 16.2948 71.0276 18.4629 67.6639 24.4865L61.2201 36.0185C61.2179 36.0224 61.2127 36.0236 61.209 36.0209C61.2053 36.0182 61.2001 36.0194 61.1979 36.0234L30.0293 91.7422C29.2206 93.1879 29.7367 95.0155 31.1822 95.8246L47.8768 105.169C49.3231 105.979 51.1518 105.462 51.9606 104.015L83.1116 48.2992C83.114 48.295 83.1128 48.2896 83.1088 48.2867C83.1049 48.2839 83.1037 48.2785 83.1061 48.2742L89.5499 36.7423C92.9272 30.7116 90.7507 23.0301 84.734 19.6607Z" fill="url(#paint0_linear)"/>
<path d="M84.734 19.6607C78.7106 16.2948 71.0276 18.4629 67.6639 24.4865L61.2201 36.0185C61.2179 36.0224 61.2127 36.0236 61.209 36.0209C61.2053 36.0182 61.2001 36.0194 61.1979 36.0234L30.0293 91.7422C29.2206 93.1879 29.7367 95.0155 31.1822 95.8246L47.8768 105.169C49.3231 105.979 51.1518 105.462 51.9606 104.015L83.1116 48.2992C83.114 48.295 83.1128 48.2896 83.1088 48.2867C83.1049 48.2839 83.1037 48.2785 83.1061 48.2742L89.5499 36.7423C92.9272 30.7116 90.7507 23.0301 84.734 19.6607Z" stroke="#BFC1C9" stroke-miterlimit="10"/>
</g>
<path d="M43.1691 89.8371C42.5739 89.5047 41.9803 89.1693 41.3822 88.8422C41.2619 88.7765 41.2405 88.7198 41.3102 88.5963C41.8294 87.6765 42.3403 86.752 42.8583 85.8315C43.1635 85.2892 43.8454 85.0902 44.3865 85.3886C45.311 85.8987 46.2304 86.4192 47.1549 86.9294C47.2819 86.9995 47.2832 87.0605 47.2171 87.1775C46.5452 88.3723 45.8762 89.5687 45.2122 90.7687C45.1371 90.9045 45.0747 90.906 44.9522 90.8361C44.3611 90.499 43.7643 90.1695 43.1691 89.8371Z" fill="white"/>
<path d="M58.3945 70.5852C58.416 70.6954 58.4374 70.8032 58.4578 70.9112C58.6357 71.8393 57.8978 72.8588 56.9157 73.0331C56.2248 73.1559 55.6105 72.9458 55.0379 72.5812C54.744 72.3938 54.4855 72.1667 54.2829 71.8765C53.7557 71.1206 53.8491 70.2729 54.4045 69.5526C54.6734 69.2034 54.7746 69.1517 55.4305 68.8934C55.312 68.8272 55.2149 68.7683 55.1137 68.718C55.0223 68.6724 55.017 68.6199 55.0631 68.5305C55.2998 68.0721 55.2981 68.0711 55.7484 68.3227C56.8755 68.9522 58.0022 69.5822 59.1296 70.2111C59.6627 70.5088 60.0509 70.9212 60.1492 71.5482C60.2473 72.1743 60.0516 72.7368 59.7186 73.2558C59.4992 73.5978 59.2238 73.8924 58.8915 74.1335C58.787 74.2089 58.7258 74.218 58.6558 74.0954C58.5847 73.9707 58.4916 73.8576 58.4163 73.7514C58.6406 73.5303 58.8706 73.3334 59.0636 73.1049C59.2936 72.8321 59.4489 72.5115 59.5116 72.1553C59.6029 71.6366 59.4208 71.2256 58.9991 70.9298C58.8078 70.7928 58.5898 70.6942 58.3945 70.5852ZM56.9012 69.7257C56.8958 69.7327 56.907 69.7196 56.9012 69.7257C56.7906 69.6716 56.6814 69.6152 56.5694 69.565C55.8444 69.2405 55.2889 69.3756 54.854 69.9792C54.4865 70.4898 54.4962 71.0881 54.9088 71.5574C55.0687 71.7395 55.2646 71.8984 55.4688 72.0287C55.8833 72.2934 56.3381 72.4461 56.8391 72.3495C57.3598 72.2491 57.6869 71.9154 57.8573 71.4231C58.0158 70.9643 57.887 70.5654 57.5595 70.2371C57.3651 70.0412 57.1168 69.9017 56.9012 69.7257Z" fill="white"/>
<path d="M53.2583 72.9115C52.6496 72.5715 52.0462 72.2345 51.4434 71.8978C51.2247 71.7757 51.2247 71.7757 51.3432 71.5636C51.5577 71.1794 51.5577 71.1794 51.9406 71.3932C53.5744 72.3057 55.2081 73.2181 56.8418 74.1306C57.0453 74.2442 57.0453 74.2442 56.9265 74.4554C56.7221 74.8174 56.7221 74.8174 56.367 74.6184C56.3148 74.5892 56.2626 74.5601 56.1835 74.5159C56.1923 74.5718 56.1904 74.5986 56.2008 74.6198C56.6886 75.6019 55.8797 77.1825 54.4632 77.1497C53.4619 77.127 52.6454 76.6895 52.0724 75.8724C51.4269 74.9522 51.7241 73.6432 52.6639 73.1369C52.8437 73.0409 53.0475 72.9901 53.2583 72.9115ZM54.8418 73.7665C54.446 73.5439 54.1059 73.4421 53.7594 73.4248C52.7387 73.3735 52.0784 74.3822 52.5335 75.2974C52.8702 75.9756 53.8378 76.516 54.5932 76.4485C55.4808 76.3691 56.0317 75.4129 55.653 74.6061C55.4664 74.2089 55.1397 73.9507 54.8418 73.7665Z" fill="white"/>
<path d="M51.2358 80.1738C51.8402 80.4471 52.4152 80.507 52.9571 80.1278C53.6751 79.6259 53.8566 78.9071 53.7113 78.0459C53.8982 78.0405 54.0787 78.03 54.2584 78.0361C54.2879 78.0371 54.3323 78.1145 54.3383 78.1603C54.4726 79.2009 54.1366 80.0545 53.284 80.6761C52.5521 81.2096 51.5328 81.1985 50.7213 80.6818C50.035 80.2452 49.5914 79.6511 49.5616 78.8104C49.5395 78.1874 49.754 77.6354 50.19 77.1909C50.7478 76.6219 51.4247 76.5531 52.1461 76.7945C52.3556 76.8643 52.5482 76.9851 52.7499 77.0799C52.8836 77.1422 52.8882 77.2221 52.8175 77.3473C52.3231 78.223 51.8348 79.1013 51.3444 79.9793C51.3122 80.0371 51.2803 80.0942 51.2358 80.1738ZM50.742 79.8307C50.7601 79.8176 50.772 79.8127 50.777 79.8038C51.1921 79.0647 51.606 78.325 52.0223 77.5865C52.0684 77.504 52.0366 77.47 51.9612 77.4356C51.303 77.1361 50.6617 77.3546 50.3213 77.9971C49.9876 78.6262 50.1745 79.4527 50.742 79.8307Z" fill="white"/>
<path d="M57.9125 68.2209C58.4676 68.4737 59.0042 68.5514 59.5256 68.2389C60.3346 67.7545 60.5331 66.9995 60.3917 66.0912C60.575 66.0853 60.7513 66.0755 60.9275 66.0796C60.9564 66.0802 61.0034 66.1421 61.0088 66.1806C61.1532 67.1634 60.8655 68.0022 60.0871 68.6235C59.3171 69.2379 58.4647 69.2683 57.5977 68.8329C57.0071 68.5363 56.5663 68.0954 56.3402 67.459C55.9813 66.4484 56.5432 65.1706 57.5155 64.8153C58.0654 64.6144 58.5982 64.7141 59.1097 64.954C59.6052 65.1867 59.6028 65.1923 59.3396 65.6637C58.9013 66.4486 58.4634 67.233 58.0251 68.0179C57.9934 68.076 57.9609 68.1343 57.9125 68.2209ZM58.735 65.5465C58.1363 65.2052 57.3732 65.3071 56.9966 66.0422C56.6678 66.6849 56.8878 67.641 57.436 67.8729C57.867 67.101 58.2981 66.329 58.735 65.5465Z" fill="white"/>
<path d="M48.4269 82.606C49.188 83.0311 49.9511 83.4527 50.7087 83.8843C50.8511 83.9654 50.9165 83.964 51.0023 83.8063C51.3983 83.0751 51.8126 82.3541 52.2116 81.6245C52.2838 81.4925 52.3419 81.4793 52.4682 81.5522C52.8426 81.7675 52.8452 81.7627 52.6359 82.1375C52.1564 82.996 51.6746 83.8533 51.2007 84.7141C51.1285 84.8447 51.0735 84.8758 50.9322 84.7969C49.2172 83.8329 47.5002 82.8739 45.78 81.9193C45.6407 81.8423 45.6218 81.773 45.7081 81.6473C45.7686 81.5597 45.8207 81.4651 45.8641 81.368C45.9204 81.2424 45.9885 81.2403 46.1002 81.3034C46.8743 81.7412 47.6511 82.1727 48.4269 82.606Z" fill="white"/>
<path d="M58.8968 63.5391C58.4661 62.6317 58.4806 62.0072 58.9219 61.6585C59.0942 61.7549 59.2683 61.8523 59.4659 61.9628C59.43 62.027 59.398 62.0895 59.3612 62.1486C59.148 62.4926 59.1467 62.8514 59.2917 63.214C59.4996 63.7339 59.9024 64.076 60.3679 64.3487C60.8694 64.6423 61.3797 64.9215 61.8897 65.1997C62.0088 65.2648 62.0447 65.3258 61.9613 65.4447C61.9064 65.5222 61.8584 65.6067 61.8216 65.6945C61.7593 65.8444 61.6854 65.8596 61.5421 65.7786C60.4134 65.1397 59.2801 64.509 58.1487 63.8762C58.0661 63.83 57.9848 63.7799 57.8995 63.7384C57.8107 63.6949 57.7876 63.6426 57.8431 63.553C57.9113 63.4434 57.9758 63.331 58.0316 63.2146C58.0828 63.1094 58.1416 63.1129 58.2309 63.1651C58.4385 63.2866 58.6494 63.4007 58.8968 63.5391Z" fill="white"/>
<path d="M47.5879 90.3218C47.7978 90.4391 48.0055 90.5589 48.2178 90.6721C48.3097 90.721 48.3381 90.7694 48.2815 90.8692C48.0424 91.2892 47.8071 91.7105 47.5749 92.1343C47.5222 92.2301 47.4713 92.2442 47.376 92.1902C46.9591 91.9519 46.5392 91.7174 46.1176 91.4874C46.0126 91.4303 46.0047 91.3741 46.0612 91.2742C46.298 90.8599 46.5304 90.4424 46.7596 90.0238C46.8133 89.9263 46.8674 89.9148 46.9597 89.9686C47.1664 90.0903 47.378 90.2046 47.5879 90.3218Z" fill="white"/>
<path d="M42.2652 92.4711C42.3676 92.2879 42.4597 92.1229 42.5522 91.9573C42.7111 91.6727 42.8733 91.3907 43.027 91.1031C43.0834 90.9978 43.1348 90.9678 43.248 91.0325C43.6596 91.2694 44.0745 91.5003 44.4908 91.7274C44.6005 91.7872 44.6125 91.8456 44.5505 91.9525C44.3152 92.3614 44.0881 92.7749 43.8586 93.1871C43.8185 93.259 43.7879 93.3247 43.6825 93.2642C43.222 93.0032 42.7584 92.7466 42.2652 92.4711Z" fill="white"/>
<path d="M44.6635 93.8113C44.6876 93.7544 44.6993 93.7169 44.7172 93.6836C44.9493 93.2667 45.1849 92.8517 45.4129 92.4325C45.4726 92.3228 45.5299 92.3069 45.6377 92.3687C46.0497 92.605 46.4667 92.8309 46.878 93.0683C46.9216 93.0935 46.975 93.1867 46.9608 93.212C46.8304 93.4399 46.7143 93.685 46.5402 93.8769C46.1789 94.2758 45.6285 94.3441 45.1594 94.0875C44.9977 93.9995 44.8377 93.9086 44.6635 93.8113Z" fill="white"/>
<path d="M41.3756 91.9678C41.1732 91.8548 40.9705 91.7578 40.7852 91.635C40.3263 91.33 40.1675 90.6955 40.4179 90.203C40.4946 90.0533 40.5851 89.9106 40.6623 89.7613C40.7111 89.6671 40.7648 89.6453 40.8618 89.7003C41.2791 89.938 41.6993 90.1704 42.1193 90.4034C42.192 90.444 42.2346 90.4848 42.184 90.574C41.9299 91.0235 41.6781 91.4743 41.4252 91.9244C41.4167 91.9382 41.4003 91.9469 41.3756 91.9678Z" fill="white"/>
<path d="M47.7477 88.2561C47.8626 88.0505 47.9813 87.8462 48.0909 87.6376C48.1438 87.5373 48.1988 87.5077 48.3001 87.5728C48.492 87.6962 48.7066 87.7913 48.8794 87.9365C49.2732 88.2686 49.3743 88.8136 49.1515 89.2813C49.0769 89.4383 48.9867 89.5874 48.9077 89.7427C48.8625 89.8319 48.809 89.8492 48.7202 89.7988C48.2975 89.5597 47.8739 89.3223 47.4483 89.0884C47.3535 89.0363 47.3381 88.9813 47.3932 88.8868C47.515 88.6797 47.6299 88.4671 47.7477 88.2561Z" fill="white"/>
<path d="M81.84 37.5951C85.403 35.7409 86.7877 31.3485 84.933 27.7844C83.0782 24.2202 78.6862 22.834 75.1232 24.6882C71.5603 26.5424 70.1755 30.9348 72.0302 34.4989C73.885 38.0631 78.277 39.4493 81.84 37.5951Z" fill="#FAFBFF" stroke="#000929" stroke-width="3" stroke-miterlimit="10"/>
<path d="M20.5895 13.1156L20.5895 14.3228L21.443 13.4692L24.845 10.0672C24.9329 9.97933 25.0753 9.97933 25.1631 10.0672C25.251 10.155 25.251 10.2975 25.1631 10.3853L20.5236 15.0249C20.4357 15.1127 20.2934 15.1127 20.2055 15.0249L19.8519 15.3784L20.2055 15.0249L15.5661 10.3856C15.5219 10.3414 15.5001 10.2846 15.5001 10.2264C15.5001 10.1682 15.5219 10.1114 15.5659 10.0673C15.6538 9.97944 15.7962 9.97944 15.8841 10.0673L15.8841 10.0673L19.2861 13.4692L20.1396 14.3227L20.1396 13.1156L20.1396 0.724929C20.1396 0.600763 20.2404 0.5 20.3645 0.5C20.4887 0.5 20.5895 0.600736 20.5895 0.724929L20.5895 13.1156Z" fill="#126DF2" stroke="#126DF2"/>
<path d="M53.503 13.1156L53.503 14.3228L54.3566 13.4692L57.7586 10.0672C57.8465 9.97933 57.9889 9.97933 58.0767 10.0672C58.1645 10.155 58.1645 10.2975 58.0767 10.3853L53.4372 15.0249C53.3493 15.1127 53.2069 15.1127 53.1191 15.0249L52.7655 15.3784L53.1191 15.0249L48.4797 10.3856C48.4355 10.3414 48.4136 10.2846 48.4136 10.2264C48.4136 10.1682 48.4355 10.1114 48.4795 10.0673C48.5674 9.97944 48.7098 9.97944 48.7976 10.0673L48.7976 10.0673L52.1996 13.4692L53.0532 14.3227L53.0532 13.1156L53.0532 0.724929C53.0532 0.600763 53.154 0.5 53.2781 0.5C53.4023 0.5 53.503 0.600736 53.503 0.724929L53.503 13.1156Z" fill="#126DF2" stroke="#126DF2"/>
<defs>
<filter id="filter0_d" x="0" y="17.5289" width="95.7436" height="34.6364" filterUnits="userSpaceOnUse" color-interpolation-filters="sRGB">
<feFlood flood-opacity="0" result="BackgroundImageFix"/>
<feColorMatrix in="SourceAlpha" type="matrix" values="0 0 0 0 0 0 0 0 0 0 0 0 0 0 0 0 0 0 127 0" result="hardAlpha"/>
<feOffset dy="4"/>
<feGaussianBlur stdDeviation="2"/>
<feColorMatrix type="matrix" values="0 0 0 0 0 0 0 0 0 0 0 0 0 0 0 0 0 0 0.25 0"/>
<feBlend mode="normal" in2="BackgroundImageFix" result="effect1_dropShadow"/>
<feBlend mode="normal" in="SourceGraphic" in2="effect1_dropShadow" result="shape"/>
</filter>
<filter id="filter1_d" x="5.68701" y="13.0327" width="111.321" height="103.085" filterUnits="userSpaceOnUse" color-interpolation-filters="sRGB">
<feFlood flood-opacity="0" result="BackgroundImageFix"/>
<feColorMatrix in="SourceAlpha" type="matrix" values="0 0 0 0 0 0 0 0 0 0 0 0 0 0 0 0 0 0 127 0" result="hardAlpha"/>
<feOffset dy="2"/>
<feGaussianBlur stdDeviation="1"/>
<feColorMatrix type="matrix" values="0 0 0 0 0 0 0 0 0 0 0 0 0 0 0 0 0 0 0.25 0"/>
<feBlend mode="normal" in2="BackgroundImageFix" result="effect1_dropShadow"/>
<feBlend mode="normal" in="SourceGraphic" in2="effect1_dropShadow" result="shape"/>
</filter>
<linearGradient id="paint0_linear" x1="41.1431" y1="98.1877" x2="82.7281" y2="22.4998" gradientUnits="userSpaceOnUse">
<stop stop-color="#C7C9D1"/>
<stop offset="1" stop-color="#D0D1D7"/>
</linearGradient>
</defs>
</svg>
