
<svg width="118" height="104" viewBox="0 0 118 104" fill="none" xmlns="http://www.w3.org/2000/svg">
<path d="M56.7745 3.38306H49.8171C49.1574 3.38306 48.6227 3.91788 48.6229 4.57762C48.623 5.23736 49.158 5.77219 49.8177 5.77219H56.7751C57.4349 5.77219 57.9695 5.23736 57.9694 4.57762C57.9692 3.91788 57.4342 3.38306 56.7745 3.38306Z" fill="#000929"/>
<path d="M23.4675 3.37073H16.5095C15.8498 3.37073 15.3151 3.90555 15.3153 4.56529C15.3154 5.22503 15.8504 5.75986 16.5101 5.75986H23.4682C24.1279 5.75986 24.6626 5.22503 24.6624 4.56529C24.6623 3.90555 24.1273 3.37073 23.4675 3.37073Z" fill="#000929"/>
<g filter="url(#filter0_d)">
<rect x="4" y="4.52887" width="87.7436" height="26.6364" rx="3" fill="#000929"/>
</g>
<path d="M15.9909 11.8652H58.627C59.4554 11.8652 60.1272 12.5368 60.1274 13.3652L60.1298 22.6885C60.13 23.5169 59.4586 24.1885 58.6302 24.1885H15.9941C15.1657 24.1885 14.4939 23.5169 14.4937 22.6885L14.4913 13.3652C14.491 12.5368 15.1624 11.8652 15.9909 11.8652Z" fill="#1A2233" stroke="black"/>
<path d="M54.4558 13.6346H20.1553C19.0507 13.6346 18.1555 14.53 18.1558 15.6346L18.157 20.4178C18.1573 21.5224 19.053 22.4178 20.1576 22.4178H54.4581C55.5627 22.4178 56.4579 21.5224 56.4576 20.4178L56.4563 15.6346C56.4561 14.53 55.5604 13.6346 54.4558 13.6346Z" fill="#92A1A8"/>
<g filter="url(#filter1_d)">
<path d="M84.734 6.66071C78.7106 3.29483 71.0276 5.46288 67.6639 11.4865L61.2201 23.0185C61.2179 23.0224 61.2127 23.0236 61.209 23.0209C61.2053 23.0182 61.2001 23.0194 61.1979 23.0234L30.0293 78.7422C29.2206 80.1879 29.7367 82.0155 31.1822 82.8246L47.8768 92.1693C49.3231 92.9788 51.1518 92.4621 51.9606 91.0155L83.1116 35.2992C83.114 35.295 83.1128 35.2896 83.1088 35.2867C83.1049 35.2839 83.1037 35.2785 83.1061 35.2742L89.5499 23.7423C92.9272 17.7116 90.7507 10.0301 84.734 6.66071Z" fill="url(#paint0_linear)"/>
<path d="M84.734 6.66071C78.7106 3.29483 71.0276 5.46288 67.6639 11.4865L61.2201 23.0185C61.2179 23.0224 61.2127 23.0236 61.209 23.0209C61.2053 23.0182 61.2001 23.0194 61.1979 23.0234L30.0293 78.7422C29.2206 80.1879 29.7367 82.0155 31.1822 82.8246L47.8768 92.1693C49.3231 92.9788 51.1518 92.4621 51.9606 91.0155L83.1116 35.2992C83.114 35.295 83.1128 35.2896 83.1088 35.2867C83.1049 35.2839 83.1037 35.2785 83.1061 35.2742L89.5499 23.7423C92.9272 17.7116 90.7507 10.0301 84.734 6.66071Z" stroke="#BFC1C9" stroke-miterlimit="10"/>
</g>
<path d="M43.1691 76.8371C42.5739 76.5047 41.9803 76.1693 41.3822 75.8422C41.2619 75.7765 41.2405 75.7198 41.3102 75.5963C41.8294 74.6765 42.3403 73.752 42.8583 72.8315C43.1635 72.2892 43.8454 72.0902 44.3865 72.3886C45.311 72.8987 46.2304 73.4192 47.1549 73.9294C47.2819 73.9995 47.2832 74.0605 47.2171 74.1775C46.5452 75.3723 45.8762 76.5687 45.2122 77.7687C45.1371 77.9045 45.0747 77.906 44.9522 77.8361C44.3611 77.499 43.7643 77.1695 43.1691 76.8371Z" fill="white"/>
<path d="M58.3945 57.5852C58.416 57.6954 58.4374 57.8032 58.4578 57.9112C58.6357 58.8393 57.8978 59.8588 56.9157 60.0331C56.2248 60.1559 55.6105 59.9458 55.0379 59.5812C54.744 59.3938 54.4855 59.1667 54.2829 58.8765C53.7557 58.1206 53.8491 57.2729 54.4045 56.5526C54.6734 56.2034 54.7746 56.1517 55.4305 55.8934C55.312 55.8272 55.2149 55.7683 55.1137 55.718C55.0223 55.6724 55.017 55.6199 55.0631 55.5305C55.2998 55.0721 55.2981 55.0711 55.7484 55.3227C56.8755 55.9522 58.0022 56.5822 59.1296 57.2111C59.6627 57.5088 60.0509 57.9212 60.1492 58.5482C60.2473 59.1743 60.0516 59.7368 59.7186 60.2558C59.4992 60.5978 59.2238 60.8924 58.8915 61.1335C58.787 61.2089 58.7258 61.218 58.6558 61.0954C58.5847 60.9707 58.4916 60.8576 58.4163 60.7514C58.6406 60.5303 58.8706 60.3334 59.0636 60.1049C59.2936 59.8321 59.4489 59.5115 59.5116 59.1553C59.6029 58.6366 59.4208 58.2256 58.9991 57.9298C58.8078 57.7928 58.5898 57.6942 58.3945 57.5852ZM56.9012 56.7257C56.8958 56.7327 56.907 56.7196 56.9012 56.7257C56.7906 56.6716 56.6814 56.6152 56.5694 56.565C55.8444 56.2405 55.2889 56.3756 54.854 56.9792C54.4865 57.4898 54.4962 58.0881 54.9088 58.5574C55.0687 58.7395 55.2646 58.8984 55.4688 59.0287C55.8833 59.2934 56.3381 59.4461 56.8391 59.3495C57.3598 59.2491 57.6869 58.9154 57.8573 58.4231C58.0158 57.9643 57.887 57.5654 57.5595 57.2371C57.3651 57.0412 57.1168 56.9017 56.9012 56.7257Z" fill="white"/>
<path d="M53.2583 59.9115C52.6496 59.5715 52.0462 59.2345 51.4434 58.8978C51.2247 58.7757 51.2247 58.7757 51.3432 58.5636C51.5577 58.1794 51.5577 58.1794 51.9406 58.3932C53.5744 59.3057 55.2081 60.2181 56.8418 61.1306C57.0453 61.2442 57.0453 61.2442 56.9265 61.4554C56.7221 61.8174 56.7221 61.8174 56.367 61.6184C56.3148 61.5892 56.2626 61.5601 56.1835 61.5159C56.1923 61.5718 56.1904 61.5986 56.2008 61.6198C56.6886 62.6019 55.8797 64.1825 54.4632 64.1497C53.4619 64.127 52.6454 63.6895 52.0724 62.8724C51.4269 61.9522 51.7241 60.6432 52.6639 60.1369C52.8437 60.0409 53.0475 59.9901 53.2583 59.9115ZM54.8418 60.7665C54.446 60.5439 54.1059 60.4421 53.7594 60.4248C52.7387 60.3735 52.0784 61.3822 52.5335 62.2974C52.8702 62.9756 53.8378 63.516 54.5932 63.4485C55.4808 63.3691 56.0317 62.4129 55.653 61.6061C55.4664 61.2089 55.1397 60.9507 54.8418 60.7665Z" fill="white"/>
<path d="M51.2358 67.1738C51.8402 67.4471 52.4152 67.507 52.9571 67.1278C53.6751 66.6259 53.8566 65.9071 53.7113 65.0459C53.8982 65.0405 54.0787 65.03 54.2584 65.0361C54.2879 65.0371 54.3323 65.1145 54.3383 65.1603C54.4726 66.2009 54.1366 67.0545 53.284 67.6761C52.5521 68.2096 51.5328 68.1985 50.7213 67.6818C50.035 67.2452 49.5914 66.6511 49.5616 65.8104C49.5395 65.1874 49.754 64.6354 50.19 64.1909C50.7478 63.6219 51.4247 63.5531 52.1461 63.7945C52.3556 63.8643 52.5482 63.9851 52.7499 64.0799C52.8836 64.1422 52.8882 64.2221 52.8175 64.3473C52.3231 65.223 51.8348 66.1013 51.3444 66.9793C51.3122 67.0371 51.2803 67.0942 51.2358 67.1738ZM50.742 66.8307C50.7601 66.8176 50.772 66.8127 50.777 66.8038C51.1921 66.0647 51.606 65.325 52.0223 64.5865C52.0684 64.504 52.0366 64.47 51.9612 64.4356C51.303 64.1361 50.6617 64.3546 50.3213 64.9971C49.9876 65.6262 50.1745 66.4527 50.742 66.8307Z" fill="white"/>
<path d="M57.9125 55.2209C58.4676 55.4737 59.0042 55.5514 59.5256 55.2389C60.3346 54.7545 60.5331 53.9995 60.3917 53.0912C60.575 53.0853 60.7513 53.0755 60.9275 53.0796C60.9564 53.0802 61.0034 53.1421 61.0088 53.1806C61.1532 54.1634 60.8655 55.0022 60.0871 55.6235C59.3171 56.2379 58.4647 56.2683 57.5977 55.8329C57.0071 55.5363 56.5663 55.0954 56.3402 54.459C55.9813 53.4484 56.5432 52.1706 57.5155 51.8153C58.0654 51.6144 58.5982 51.7141 59.1097 51.954C59.6052 52.1867 59.6028 52.1923 59.3396 52.6637C58.9013 53.4486 58.4634 54.233 58.0251 55.0179C57.9934 55.076 57.9609 55.1343 57.9125 55.2209ZM58.735 52.5465C58.1363 52.2052 57.3732 52.3071 56.9966 53.0422C56.6678 53.6849 56.8878 54.641 57.436 54.8729C57.867 54.101 58.2981 53.329 58.735 52.5465Z" fill="white"/>
<path d="M48.4269 69.606C49.188 70.0311 49.9511 70.4527 50.7087 70.8843C50.8511 70.9654 50.9165 70.964 51.0023 70.8063C51.3983 70.0751 51.8126 69.3541 52.2116 68.6245C52.2838 68.4925 52.3419 68.4793 52.4682 68.5522C52.8426 68.7675 52.8452 68.7627 52.6359 69.1375C52.1564 69.996 51.6746 70.8533 51.2007 71.7141C51.1285 71.8447 51.0735 71.8758 50.9322 71.7969C49.2172 70.8329 47.5002 69.8739 45.78 68.9193C45.6407 68.8423 45.6218 68.773 45.7081 68.6473C45.7686 68.5597 45.8207 68.4651 45.8641 68.368C45.9204 68.2424 45.9885 68.2403 46.1002 68.3034C46.8743 68.7412 47.6511 69.1727 48.4269 69.606Z" fill="white"/>
<path d="M58.8968 50.5391C58.4661 49.6317 58.4806 49.0072 58.9219 48.6585C59.0942 48.7549 59.2683 48.8523 59.4659 48.9628C59.43 49.027 59.398 49.0895 59.3612 49.1486C59.148 49.4926 59.1467 49.8514 59.2917 50.214C59.4996 50.7339 59.9024 51.076 60.3679 51.3487C60.8694 51.6423 61.3797 51.9215 61.8897 52.1997C62.0088 52.2648 62.0447 52.3258 61.9613 52.4447C61.9064 52.5222 61.8584 52.6067 61.8216 52.6945C61.7593 52.8444 61.6854 52.8596 61.5421 52.7786C60.4134 52.1397 59.2801 51.509 58.1487 50.8762C58.0661 50.83 57.9848 50.7799 57.8995 50.7384C57.8107 50.6949 57.7876 50.6426 57.8431 50.553C57.9113 50.4434 57.9758 50.331 58.0316 50.2146C58.0828 50.1094 58.1416 50.1129 58.2309 50.1651C58.4385 50.2866 58.6494 50.4007 58.8968 50.5391Z" fill="white"/>
<path d="M47.5879 77.3218C47.7978 77.4391 48.0055 77.5589 48.2178 77.6721C48.3097 77.721 48.3381 77.7694 48.2815 77.8692C48.0424 78.2892 47.8071 78.7105 47.5749 79.1343C47.5222 79.2301 47.4713 79.2442 47.376 79.1902C46.9591 78.9519 46.5392 78.7174 46.1176 78.4874C46.0126 78.4303 46.0047 78.3741 46.0612 78.2742C46.298 77.8599 46.5304 77.4424 46.7596 77.0238C46.8133 76.9263 46.8674 76.9148 46.9597 76.9686C47.1664 77.0903 47.378 77.2046 47.5879 77.3218Z" fill="white"/>
<path d="M42.2652 79.4711C42.3676 79.2879 42.4597 79.1229 42.5522 78.9573C42.7111 78.6727 42.8733 78.3907 43.027 78.1031C43.0834 77.9978 43.1348 77.9678 43.248 78.0325C43.6596 78.2694 44.0745 78.5003 44.4908 78.7274C44.6005 78.7872 44.6125 78.8456 44.5505 78.9525C44.3152 79.3614 44.0881 79.7749 43.8586 80.1871C43.8185 80.259 43.7879 80.3247 43.6825 80.2642C43.222 80.0032 42.7584 79.7466 42.2652 79.4711Z" fill="white"/>
<path d="M44.6635 80.8113C44.6876 80.7544 44.6993 80.7169 44.7172 80.6836C44.9493 80.2667 45.1849 79.8517 45.4129 79.4325C45.4726 79.3228 45.5299 79.3069 45.6377 79.3687C46.0497 79.605 46.4667 79.8309 46.878 80.0683C46.9216 80.0935 46.975 80.1867 46.9608 80.212C46.8304 80.4399 46.7143 80.685 46.5402 80.8769C46.1789 81.2758 45.6285 81.3441 45.1594 81.0875C44.9977 80.9995 44.8377 80.9086 44.6635 80.8113Z" fill="white"/>
<path d="M41.3756 78.9678C41.1732 78.8548 40.9705 78.7578 40.7852 78.635C40.3263 78.33 40.1675 77.6955 40.4179 77.203C40.4946 77.0533 40.5851 76.9106 40.6623 76.7613C40.7111 76.6671 40.7648 76.6453 40.8618 76.7003C41.2791 76.938 41.6993 77.1704 42.1193 77.4034C42.192 77.444 42.2346 77.4848 42.184 77.574C41.9299 78.0235 41.6781 78.4743 41.4252 78.9244C41.4167 78.9382 41.4003 78.9469 41.3756 78.9678Z" fill="white"/>
<path d="M47.7477 75.2561C47.8626 75.0505 47.9813 74.8462 48.0909 74.6376C48.1438 74.5373 48.1988 74.5077 48.3001 74.5728C48.492 74.6962 48.7066 74.7913 48.8794 74.9365C49.2732 75.2686 49.3743 75.8136 49.1515 76.2813C49.0769 76.4383 48.9867 76.5874 48.9077 76.7427C48.8625 76.8319 48.809 76.8492 48.7202 76.7988C48.2975 76.5597 47.8739 76.3223 47.4483 76.0884C47.3535 76.0363 47.3381 75.9813 47.3932 75.8868C47.515 75.6797 47.6299 75.4671 47.7477 75.2561Z" fill="white"/>
<path d="M81.84 24.5951C85.403 22.7409 86.7877 18.3485 84.933 14.7844C83.0782 11.2202 78.6862 9.83402 75.1232 11.6882C71.5603 13.5424 70.1755 17.9348 72.0302 21.4989C73.885 25.0631 78.277 26.4493 81.84 24.5951Z" fill="#FAFBFF" stroke="#000929" stroke-width="3" stroke-miterlimit="10"/>
<defs>
<filter id="filter0_d" x="0" y="4.52887" width="95.7436" height="34.6364" filterUnits="userSpaceOnUse" color-interpolation-filters="sRGB">
<feFlood flood-opacity="0" result="BackgroundImageFix"/>
<feColorMatrix in="SourceAlpha" type="matrix" values="0 0 0 0 0 0 0 0 0 0 0 0 0 0 0 0 0 0 127 0" result="hardAlpha"/>
<feOffset dy="4"/>
<feGaussianBlur stdDeviation="2"/>
<feColorMatrix type="matrix" values="0 0 0 0 0 0 0 0 0 0 0 0 0 0 0 0 0 0 0.25 0"/>
<feBlend mode="normal" in2="BackgroundImageFix" result="effect1_dropShadow"/>
<feBlend mode="normal" in="SourceGraphic" in2="effect1_dropShadow" result="shape"/>
</filter>
<filter id="filter1_d" x="5.68701" y="0.0326538" width="111.321" height="103.085" filterUnits="userSpaceOnUse" color-interpolation-filters="sRGB">
<feFlood flood-opacity="0" result="BackgroundImageFix"/>
<feColorMatrix in="SourceAlpha" type="matrix" values="0 0 0 0 0 0 0 0 0 0 0 0 0 0 0 0 0 0 127 0" result="hardAlpha"/>
<feOffset dy="2"/>
<feGaussianBlur stdDeviation="1"/>
<feColorMatrix type="matrix" values="0 0 0 0 0 0 0 0 0 0 0 0 0 0 0 0 0 0 0.25 0"/>
<feBlend mode="normal" in2="BackgroundImageFix" result="effect1_dropShadow"/>
<feBlend mode="normal" in="SourceGraphic" in2="effect1_dropShadow" result="shape"/>
</filter>
<linearGradient id="paint0_linear" x1="41.1431" y1="85.1877" x2="82.7281" y2="9.49981" gradientUnits="userSpaceOnUse">
<stop stop-color="#C7C9D1"/>
<stop offset="1" stop-color="#D0D1D7"/>
</linearGradient>
</defs>
</svg>
