<svg width="57" height="122" viewBox="0 0 57 122" fill="none" xmlns="http://www.w3.org/2000/svg">
<path d="M56.7902 51.0237V2.44581C56.7902 0.659773 55.3615 0 54.342 0H28.4009H2.45986C1.43851 0 0.00974688 0.659773 0.00974688 2.44581V51.0237C-0.429302 73.653 14.0872 79.9199 18.7121 91.6545H25.3946H28.3953H28.4046H31.1915H38.0879C42.7128 79.9199 57.2293 73.6511 56.7902 51.0237Z" fill="#34688C"/>
<path d="M36.1454 91.6545H20.6545V114.891H36.1454V91.6545Z" fill="black"/>
<path d="M32.2727 114.891H24.5272V121.345H32.2727V114.891Z" fill="#000101"/>
<path d="M46.8018 55.5091H9.9983C8.75925 55.5091 7.74548 54.5271 7.74548 53.3267V17.6734C7.74548 16.4731 8.75925 15.491 9.9983 15.491H46.8018C48.0408 15.491 49.0546 16.4731 49.0546 17.6734V53.3267C49.0546 54.5271 48.0408 55.5091 46.8018 55.5091Z" fill="#00AFED"/>
<path d="M46.8018 55.509H9.9983C8.75925 55.509 7.74548 54.4953 7.74548 53.2562V16.4528C7.74548 15.2137 8.75925 14.2 9.9983 14.2H46.8018C48.0408 14.2 49.0546 15.2137 49.0546 16.4528V53.2562C49.0546 54.4953 48.0408 55.509 46.8018 55.509Z" fill="#162229"/>
<path d="M37.5408 91.6545C36.0086 78.3572 51.8189 74.5529 54.1631 48.2612C54.1631 27.8487 54.1287 3.09048 54.1287 3.09048L55.9232 1.29089L56.7908 2.87246C56.7908 2.87246 56.7928 38.1917 56.7928 51.2913C57.1605 73.7677 43.4952 78.287 37.5408 91.6545Z" fill="url(#paint0_linear)"/>
<path d="M2.41825 5.16364V2.63936L43.8909 0C43.8909 0 4.35766 0 2.4164 0C0.475146 0 0 1.70715 0 2.58182L2.41825 5.16364Z" fill="#00DCF9"/>
<path d="M21.9496 35.7504C21.9496 34.8731 21.9496 33.9976 21.9496 33.1203C21.9496 32.5678 21.9516 32.0153 21.9455 31.4647C21.9434 31.2916 22.015 31.1807 22.1764 31.1048C22.4503 30.9764 22.7405 30.9045 23.0349 30.8403C23.2311 30.7975 23.4293 30.7625 23.6276 30.7255C23.7216 30.708 23.7543 30.6788 23.7563 30.5854C23.7584 30.4668 23.7523 30.3481 23.7543 30.2314C23.7584 29.7333 23.7441 29.2334 23.7706 28.7354C23.8238 27.6907 24.2142 26.7744 24.9602 26.0001C25.3465 25.5994 25.79 25.2628 26.2948 25.008C26.8078 24.7473 27.3535 24.5917 27.934 24.545C28.7659 24.4788 29.565 24.5956 30.3274 24.9263C31.2001 25.3037 31.8787 25.8912 32.3712 26.6732C32.686 27.1752 32.9006 27.7179 32.9803 28.2976C33.0273 28.64 33.0396 28.9863 33.0477 29.3306C33.058 29.7236 33.0477 30.1185 33.0457 30.5134C33.0457 30.6652 33.0784 30.7041 33.2337 30.7372C33.5873 30.8169 33.9409 30.8909 34.2904 30.9803C34.4335 31.0173 34.5704 31.0854 34.7033 31.1515C34.8218 31.2099 34.8545 31.3227 34.8545 31.4414C34.8525 32.523 34.8504 33.6027 34.8484 34.6844C34.8484 36.4586 34.8484 38.2347 34.8463 40.0089C34.8463 40.0731 34.8402 40.1392 34.8259 40.2015C34.7932 40.3377 34.691 40.4194 34.5602 40.4661C33.9798 40.6723 33.3972 40.8746 32.8147 41.0789C31.5312 41.5283 30.2497 41.9776 28.9661 42.429C28.8701 42.462 28.7761 42.4971 28.6821 42.5379C28.5758 42.5846 28.4654 42.6099 28.3489 42.5963C28.3039 42.5904 28.2569 42.5865 28.214 42.571C26.9059 42.1119 25.5999 41.6508 24.2939 41.1898C23.6398 40.9583 22.9838 40.7287 22.3297 40.4972C22.0088 40.3844 21.9475 40.2988 21.9475 39.9719C21.9496 38.5674 21.9496 37.1589 21.9496 35.7504ZM24.5207 35.7855H24.5187C24.5187 36.6687 24.5187 37.5538 24.5187 38.437C24.5187 38.5907 24.5596 38.6491 24.7129 38.7016C24.9827 38.795 25.2525 38.8884 25.5202 38.9837C26.3582 39.2774 27.1962 39.5692 28.0301 39.8688C28.2896 39.9622 28.5369 39.9739 28.7945 39.8708C28.9825 39.7949 29.1767 39.7327 29.3688 39.6665C30.2844 39.3475 31.2001 39.0284 32.1157 38.7094C32.2568 38.6607 32.2936 38.6102 32.2936 38.474C32.2936 36.9624 32.2936 35.4489 32.2915 33.9373C32.2915 33.6883 32.2936 33.4413 32.2895 33.1923C32.2874 33.0133 32.2384 32.9491 32.0585 32.9024C31.8991 32.8615 31.7376 32.8285 31.5741 32.8012C31.1081 32.7215 30.638 32.6845 30.1659 32.6728C29.4301 32.6553 28.6964 32.63 27.9606 32.6339C27.3474 32.6378 26.7343 32.6767 26.1211 32.702C25.6449 32.7234 25.1789 32.7954 24.717 32.9102C24.5494 32.953 24.5228 32.9802 24.5228 33.1436C24.5207 34.0229 24.5207 34.9042 24.5207 35.7855ZM25.9698 30.4745C26.0189 30.4745 26.0557 30.4765 26.0925 30.4745C26.6443 30.4492 27.1962 30.4123 27.748 30.3987C28.7413 30.3753 29.7346 30.4006 30.7259 30.4745C30.8342 30.4823 30.8404 30.4784 30.8404 30.3714C30.8383 30.1166 30.8424 29.8617 30.8363 29.6069C30.824 29.2217 30.8281 28.8365 30.7811 28.4552C30.6871 27.6887 30.2374 27.1576 29.4996 26.8581C28.913 26.6188 28.2999 26.6207 27.6846 26.7433C27.0756 26.8658 26.6055 27.1907 26.2907 27.7043C26.0598 28.0778 25.9821 28.4922 25.9719 28.9182C25.9637 29.282 25.9698 29.6458 25.9698 30.0096C25.9698 30.1613 25.9698 30.3131 25.9698 30.4745Z" fill="white"/>
<path d="M10.3294 9.48425C10.3294 9.04531 10.3294 8.60638 10.3294 8.16946C10.3294 7.89235 10.3294 7.61725 10.3273 7.34014C10.3273 7.25316 10.3613 7.19854 10.442 7.16011C10.578 7.09538 10.7246 7.05897 10.8712 7.02863C10.9689 7.0084 11.0688 6.9902 11.1686 6.97199C11.2154 6.9639 11.2324 6.94772 11.2324 6.90322C11.2345 6.84456 11.2302 6.7859 11.2302 6.72522C11.2324 6.47642 11.226 6.2256 11.2387 5.9768C11.2642 5.45493 11.4597 4.99577 11.8336 4.60942C12.027 4.40917 12.2479 4.24128 12.5007 4.11183C12.7578 3.98237 13.0298 3.90348 13.3208 3.88123C13.7373 3.84887 14.1367 3.90753 14.517 4.07137C14.9525 4.25949 15.2925 4.55279 15.5389 4.9452C15.6961 5.19602 15.8024 5.46707 15.8427 5.75835C15.8661 5.92826 15.8725 6.10221 15.8767 6.27415C15.881 6.47035 15.8767 6.66858 15.8767 6.86479C15.8767 6.93963 15.8937 6.95986 15.9702 6.97806C16.1466 7.01852 16.3229 7.05493 16.4992 7.09943C16.5715 7.11763 16.6395 7.15202 16.7053 7.18438C16.7648 7.2127 16.7818 7.26934 16.7818 7.33002C16.7818 7.8701 16.7797 8.41219 16.7797 8.95227C16.7797 9.84025 16.7797 10.7282 16.7797 11.6142C16.7797 11.6466 16.7776 11.6789 16.7691 11.7113C16.7521 11.7801 16.7011 11.8205 16.6352 11.8428C16.3441 11.9459 16.0531 12.0471 15.762 12.1482C15.1204 12.3727 14.4787 12.5973 13.8392 12.8238C13.7904 12.84 13.7436 12.8582 13.6969 12.8784C13.6438 12.9007 13.5885 12.9148 13.5312 12.9067C13.5078 12.9047 13.4844 12.9027 13.4632 12.8946C12.8088 12.664 12.1566 12.4334 11.5022 12.2048C11.175 12.0896 10.8478 11.9743 10.5206 11.859C10.3591 11.8023 10.3294 11.7598 10.3294 11.596C10.3294 10.8921 10.3294 10.1882 10.3294 9.48425ZM11.6148 9.50043C11.6148 9.50043 11.6127 9.50043 11.6148 9.50043C11.6127 9.94139 11.6127 10.3844 11.6127 10.8253C11.6127 10.9022 11.6339 10.9305 11.7104 10.9568C11.8442 11.0033 11.9802 11.0499 12.1141 11.0984C12.5326 11.2461 12.9512 11.3917 13.3697 11.5414C13.4993 11.5879 13.6225 11.594 13.7521 11.5414C13.8456 11.503 13.9433 11.4726 14.039 11.4382C14.4957 11.2784 14.9547 11.1186 15.4114 10.9588C15.4816 10.9346 15.5007 10.9083 15.5007 10.8415C15.5007 10.085 15.5007 9.3285 15.5007 8.57199C15.5007 8.4486 15.5007 8.32319 15.4986 8.1998C15.4964 8.1108 15.4731 8.07844 15.3817 8.05417C15.3031 8.03394 15.2202 8.01776 15.1395 8.0036C14.9058 7.96517 14.6721 7.94494 14.4341 7.93887C14.0666 7.93078 13.699 7.91662 13.3315 7.91864C13.0255 7.92066 12.7175 7.93887 12.4115 7.95303C12.1736 7.96314 11.9398 7.99955 11.7104 8.05619C11.6254 8.07642 11.6127 8.0926 11.6127 8.17351C11.6148 8.62054 11.6148 9.05947 11.6148 9.50043ZM12.3393 6.84456C12.3648 6.84456 12.3818 6.84456 12.4009 6.84456C12.6771 6.83243 12.9533 6.81422 13.2295 6.80613C13.7266 6.79399 14.2238 6.80815 14.7188 6.84456C14.7741 6.84861 14.7762 6.84658 14.7762 6.79197C14.7762 6.66454 14.7783 6.5371 14.7741 6.40967C14.7677 6.21751 14.7698 6.02333 14.7464 5.83319C14.6997 5.45089 14.4745 5.18388 14.1069 5.0342C13.8137 4.91486 13.5057 4.91486 13.1997 4.97756C12.8938 5.04027 12.6601 5.20209 12.5029 5.45696C12.3881 5.64305 12.3478 5.85139 12.3435 6.06378C12.3393 6.24583 12.3414 6.42788 12.3414 6.60992C12.3393 6.68881 12.3393 6.76567 12.3393 6.84456Z" fill="#162229"/>
<path d="M40.7664 11.2744C40.7664 9.74885 40.7664 8.23265 40.7664 6.70714C40.8222 6.70156 40.8724 6.69226 40.9208 6.69226C41.7021 6.6904 42.4835 6.67923 43.2648 6.69598C43.8974 6.709 44.4313 6.94899 44.7066 7.54989C44.9689 8.12288 44.9466 8.70704 44.5652 9.23167C44.435 9.41026 44.2434 9.54235 44.0667 9.70792C44.3234 10.2121 44.5894 10.7348 44.8741 11.2911C44.3457 11.2911 43.8527 11.2948 43.3597 11.2855C43.3114 11.2837 43.2481 11.2055 43.2221 11.1479C43.0639 10.8037 42.8965 10.4614 42.77 10.1042C42.69 9.88094 42.5653 9.8121 42.3495 9.84373C42.2937 9.85303 42.2361 9.84559 42.1598 9.84559C42.1598 10.3311 42.1598 10.7944 42.1598 11.2762C41.6891 11.2744 41.2408 11.2744 40.7664 11.2744ZM42.1654 8.61774C42.4946 8.61774 42.8016 8.62891 43.1067 8.61402C43.3169 8.60286 43.4472 8.45961 43.4472 8.28102C43.4453 8.08196 43.3262 7.95173 43.1439 7.93871C42.8202 7.91638 42.4946 7.93313 42.1672 7.93313C42.1654 8.16195 42.1654 8.37775 42.1654 8.61774Z" fill="#162229"/>
<path d="M24.7304 9.83974C24.7304 10.329 24.7304 10.7997 24.7304 11.2797C24.2653 11.2797 23.8226 11.2797 23.3612 11.2797C23.3612 9.75603 23.3612 8.2361 23.3612 6.70315C23.4003 6.69943 23.4431 6.69013 23.484 6.69013C24.2728 6.69013 25.0616 6.67711 25.8485 6.69385C26.4718 6.70687 26.9982 6.93942 27.2773 7.53288C27.5396 8.08913 27.5229 8.66026 27.1787 9.18117C27.0466 9.38209 26.8345 9.52906 26.6485 9.71324C26.9034 10.2137 27.1694 10.7364 27.4522 11.2908C26.9257 11.2908 26.4401 11.2964 25.9546 11.2834C25.9006 11.2815 25.8299 11.1997 25.8002 11.1383C25.6383 10.7885 25.4727 10.4369 25.3351 10.076C25.2625 9.88439 25.1583 9.81184 24.9648 9.83974C24.896 9.84904 24.8235 9.83974 24.7304 9.83974ZM24.7416 7.90867C24.7416 8.15052 24.7416 8.37377 24.7416 8.60073C25.0839 8.60073 25.4262 8.61748 25.7629 8.58957C25.8541 8.58213 25.9769 8.4519 26.0085 8.35144C26.0364 8.264 25.9899 8.10959 25.9211 8.04262C25.8411 7.96448 25.7034 7.92356 25.5862 7.91425C25.3183 7.89565 25.0467 7.90867 24.7416 7.90867Z" fill="#162229"/>
<path d="M37.9017 11.3857C36.125 11.3597 34.9958 9.85648 35.5408 8.20075C35.8329 7.31149 36.5045 6.82407 37.4031 6.66966C38.4058 6.49851 39.3137 6.72175 39.9592 7.55334C41.0587 8.96722 40.2309 11.0285 38.4654 11.3262C38.2812 11.3578 38.0896 11.3671 37.9017 11.3857ZM39.0142 9.00443C39.0216 8.3347 38.577 7.86216 37.9314 7.85472C37.2952 7.84728 36.8282 8.32539 36.8208 8.98583C36.8152 9.63882 37.2859 10.1374 37.9128 10.143C38.5491 10.1486 39.0067 9.67417 39.0142 9.00443Z" fill="#162229"/>
<path d="M27.8409 6.70142C29.0018 6.70142 30.1459 6.70142 31.3087 6.70142C31.3087 7.09209 31.3087 7.48277 31.3087 7.90136C30.6296 7.90136 29.9413 7.90136 29.2437 7.90136C29.2437 8.06321 29.2437 8.19716 29.2437 8.34971C29.919 8.34971 30.5813 8.34971 31.2622 8.34971C31.2622 8.76271 31.2622 9.15897 31.2622 9.57383C30.5924 9.57383 29.932 9.57383 29.2511 9.57383C29.2511 9.74127 29.2511 9.8901 29.2511 10.0668C29.9339 10.0668 30.6148 10.0668 31.3124 10.0668C31.3124 10.4854 31.3124 10.8742 31.3124 11.2779C30.1552 11.2779 29.0055 11.2779 27.8409 11.2779C27.8409 9.75801 27.8409 8.24181 27.8409 6.70142Z" fill="#162229"/>
<path d="M33.4944 10.0745C34.1139 10.0745 34.6813 10.0745 35.2636 10.0745C35.2636 10.482 35.2636 10.8708 35.2636 11.2764C34.0656 11.2764 32.8656 11.2764 31.6378 11.2764C31.6378 10.9285 31.6322 10.5862 31.6415 10.2457C31.6434 10.1825 31.6954 10.1136 31.7382 10.0578C32.2517 9.38621 32.7689 8.71462 33.2842 8.04302C33.3102 8.00953 33.3326 7.97605 33.3791 7.90907C32.7838 7.90907 32.2201 7.90907 31.6452 7.90907C31.6452 7.49421 31.6452 7.10353 31.6452 6.69983C32.8414 6.69983 34.0265 6.69983 35.2339 6.69983C35.2339 7.0533 35.2395 7.39375 35.2283 7.73606C35.2264 7.80675 35.1669 7.88117 35.1185 7.94256C34.6479 8.55648 34.1753 9.16855 33.7028 9.78061C33.6451 9.86247 33.5874 9.94618 33.4944 10.0745Z" fill="#162229"/>
<path d="M20.4049 7.907C19.9733 7.907 19.5807 7.907 19.1752 7.907C19.1752 7.5033 19.1752 7.11262 19.1752 6.7052C20.4532 6.7052 21.7183 6.7052 23.0075 6.7052C23.0075 7.09774 23.0075 7.49214 23.0075 7.90886C22.6076 7.90886 22.2169 7.90886 21.802 7.90886C21.802 9.04183 21.802 10.1543 21.802 11.2799C21.3276 11.2799 20.8793 11.2799 20.4067 11.2799C20.4049 10.1618 20.4049 9.04927 20.4049 7.907Z" fill="#162229"/>
<path d="M10.3273 80.2317C13.1106 72.119 25.0044 71.553 35.4006 68.7585C43.487 66.5842 50.7111 64.3239 54.2182 52.9272C50.7784 74.482 37.1022 78.4329 38.1763 91.6545H18.0961C17.2202 89.1607 14.2386 84.6383 10.3273 80.2317Z" fill="url(#paint1_linear)"/>
<path d="M19.2589 91.6545C20.7934 78.3572 4.99039 74.5529 2.64266 48.2612C2.64266 27.8487 2.67719 3.09048 2.67719 3.09048L0.878034 1.29089L0.00914644 2.87246C0.00914644 2.87246 0.00722836 38.1917 0.00722836 51.2913C-0.359124 73.7677 13.2956 78.287 19.2589 91.6545Z" fill="url(#paint2_linear)"/>
<defs>
<linearGradient id="paint0_linear" x1="47.3815" y1="90.809" x2="46.8902" y2="2.97763" gradientUnits="userSpaceOnUse">
<stop stop-color="#162229"/>
<stop offset="0.4421" stop-color="#29363D"/>
<stop offset="0.4973" stop-color="#253239"/>
<stop offset="0.7508" stop-color="#1A262D"/>
<stop offset="1" stop-color="#162229"/>
</linearGradient>
<linearGradient id="paint1_linear" x1="32.273" y1="89.5783" x2="32.273" y2="56.2057" gradientUnits="userSpaceOnUse">
<stop/>
<stop offset="0.4421" stop-color="#162229"/>
<stop offset="1" stop-color="#162229"/>
</linearGradient>
<linearGradient id="paint2_linear" x1="9.41895" y1="90.8091" x2="9.90953" y2="2.97754" gradientUnits="userSpaceOnUse">
<stop/>
<stop offset="0.4421" stop-color="#666666" stop-opacity="0.1"/>
<stop offset="0.4862" stop-color="#61666A" stop-opacity="0.1712"/>
<stop offset="0.8179" stop-color="#406883" stop-opacity="0.7062"/>
<stop offset="1" stop-color="#34688C"/>
</linearGradient>
</defs>
</svg>
