<svg width="57" height="122" viewBox="0 0 57 122" fill="none" xmlns="http://www.w3.org/2000/svg">
<path d="M56.7902 51.0237V2.44581C56.7902 0.659773 55.3615 0 54.342 0H28.4009H2.45986C1.43851 0 0.00974688 0.659773 0.00974688 2.44581V51.0237C-0.429302 73.653 14.0872 79.9199 18.7121 91.6545H25.3946H28.3953H28.4046H31.1915H38.0879C42.7128 79.9199 57.2293 73.6511 56.7902 51.0237Z" fill="#34688C"/>
<path d="M36.1457 91.6545H20.6548V114.891H36.1457V91.6545Z" fill="black"/>
<path d="M32.2728 114.891H24.5273V121.345H32.2728V114.891Z" fill="#000101"/>
<path d="M46.8019 55.5091H9.99842C8.75937 55.5091 7.74561 54.5271 7.74561 53.3267V17.6734C7.74561 16.4731 8.75937 15.491 9.99842 15.491H46.8019C48.0409 15.491 49.0547 16.4731 49.0547 17.6734V53.3267C49.0547 54.5271 48.0409 55.5091 46.8019 55.5091Z" fill="#00AFED"/>
<path d="M46.8019 55.509H9.99842C8.75937 55.509 7.74561 54.4953 7.74561 53.2562V16.4528C7.74561 15.2137 8.75937 14.2 9.99842 14.2H46.8019C48.0409 14.2 49.0547 15.2137 49.0547 16.4528V53.2562C49.0547 54.4953 48.0409 55.509 46.8019 55.509Z" fill="#162229"/>
<path d="M37.5409 91.6545C36.0087 78.3572 51.819 74.5529 54.1633 48.2612C54.1633 27.8487 54.1288 3.09048 54.1288 3.09048L55.9234 1.29089L56.791 2.87246C56.791 2.87246 56.7929 38.1917 56.7929 51.2913C57.1606 73.7677 43.4954 78.287 37.5409 91.6545Z" fill="url(#paint0_linear)"/>
<path d="M2.41825 5.16364V2.63936L43.8909 0C43.8909 0 4.35766 0 2.4164 0C0.475146 0 0 1.70715 0 2.58182L2.41825 5.16364Z" fill="#00DCF9"/>
<path d="M21.9494 35.7504C21.9494 34.8731 21.9494 33.9976 21.9494 33.1203C21.9494 32.5678 21.9515 32.0153 21.9454 31.4647C21.9433 31.2916 22.0148 31.1807 22.1763 31.1048C22.4502 30.9764 22.7404 30.9045 23.0347 30.8403C23.2309 30.7975 23.4292 30.7625 23.6275 30.7255C23.7215 30.708 23.7542 30.6788 23.7562 30.5854C23.7583 30.4668 23.7521 30.3481 23.7542 30.2314C23.7583 29.7333 23.744 29.2334 23.7705 28.7354C23.8237 27.6907 24.214 26.7744 24.9601 26.0001C25.3463 25.5994 25.7899 25.2628 26.2947 25.008C26.8077 24.7473 27.3534 24.5917 27.9339 24.545C28.7657 24.4788 29.5649 24.5956 30.3272 24.9263C31.2 25.3037 31.8785 25.8912 32.3711 26.6732C32.6859 27.1752 32.9005 27.7179 32.9802 28.2976C33.0272 28.64 33.0394 28.9863 33.0476 29.3306C33.0578 29.7236 33.0476 30.1185 33.0456 30.5134C33.0456 30.6652 33.0783 30.7041 33.2336 30.7372C33.5872 30.8169 33.9408 30.8909 34.2903 30.9803C34.4334 31.0173 34.5703 31.0854 34.7032 31.1515C34.8217 31.2099 34.8544 31.3227 34.8544 31.4414C34.8524 32.523 34.8503 33.6027 34.8483 34.6844C34.8483 36.4586 34.8483 38.2347 34.8462 40.0089C34.8462 40.0731 34.8401 40.1392 34.8258 40.2015C34.7931 40.3377 34.6909 40.4194 34.5601 40.4661C33.9796 40.6723 33.3971 40.8746 32.8146 41.0789C31.5311 41.5283 30.2496 41.9776 28.966 42.429C28.87 42.462 28.7759 42.4971 28.6819 42.5379C28.5756 42.5846 28.4653 42.6099 28.3488 42.5963C28.3038 42.5904 28.2568 42.5865 28.2139 42.571C26.9058 42.1119 25.5998 41.6508 24.2938 41.1898C23.6397 40.9583 22.9836 40.7287 22.3296 40.4972C22.0087 40.3844 21.9474 40.2988 21.9474 39.9719C21.9494 38.5674 21.9494 37.1589 21.9494 35.7504ZM24.5206 35.7855H24.5186C24.5186 36.6687 24.5186 37.5538 24.5186 38.437C24.5186 38.5907 24.5595 38.6491 24.7127 38.7016C24.9825 38.795 25.2523 38.8884 25.5201 38.9837C26.3581 39.2774 27.196 39.5692 28.0299 39.8688C28.2895 39.9622 28.5368 39.9739 28.7943 39.8708C28.9824 39.7949 29.1765 39.7327 29.3687 39.6665C30.2843 39.3475 31.2 39.0284 32.1156 38.7094C32.2566 38.6607 32.2934 38.6102 32.2934 38.474C32.2934 36.9624 32.2934 35.4489 32.2914 33.9373C32.2914 33.6883 32.2934 33.4413 32.2894 33.1923C32.2873 33.0133 32.2383 32.9491 32.0584 32.9024C31.899 32.8615 31.7375 32.8285 31.574 32.8012C31.108 32.7215 30.6379 32.6845 30.1658 32.6728C29.43 32.6553 28.6962 32.63 27.9604 32.6339C27.3473 32.6378 26.7341 32.6767 26.121 32.702C25.6447 32.7234 25.1787 32.7954 24.7168 32.9102C24.5492 32.953 24.5227 32.9802 24.5227 33.1436C24.5206 34.0229 24.5206 34.9042 24.5206 35.7855ZM25.9697 30.4745C26.0188 30.4745 26.0556 30.4765 26.0924 30.4745C26.6442 30.4492 27.196 30.4123 27.7479 30.3987C28.7412 30.3753 29.7345 30.4006 30.7258 30.4745C30.8341 30.4823 30.8403 30.4784 30.8403 30.3714C30.8382 30.1166 30.8423 29.8617 30.8362 29.6069C30.8239 29.2217 30.828 28.8365 30.781 28.4552C30.687 27.6887 30.2373 27.1576 29.4995 26.8581C28.9129 26.6188 28.2997 26.6207 27.6845 26.7433C27.0755 26.8658 26.6054 27.1907 26.2906 27.7043C26.0597 28.0778 25.982 28.4922 25.9718 28.9182C25.9636 29.282 25.9697 29.6458 25.9697 30.0096C25.9697 30.1613 25.9697 30.3131 25.9697 30.4745Z" fill="white"/>
<path d="M10.3293 9.48425C10.3293 9.04531 10.3293 8.60638 10.3293 8.16946C10.3293 7.89235 10.3293 7.61725 10.3271 7.34014C10.3271 7.25316 10.3611 7.19854 10.4419 7.16011C10.5779 7.09538 10.7244 7.05897 10.871 7.02863C10.9688 7.0084 11.0686 6.9902 11.1685 6.97199C11.2152 6.9639 11.2322 6.94772 11.2322 6.90322C11.2344 6.84456 11.2301 6.7859 11.2301 6.72522C11.2322 6.47642 11.2259 6.2256 11.2386 5.9768C11.2641 5.45493 11.4596 4.99577 11.8335 4.60942C12.0268 4.40917 12.2478 4.24128 12.5006 4.11183C12.7577 3.98237 13.0296 3.90348 13.3207 3.88123C13.7371 3.84887 14.1366 3.90753 14.5169 4.07137C14.9524 4.25949 15.2923 4.55279 15.5388 4.9452C15.696 5.19602 15.8023 5.46707 15.8426 5.75835C15.866 5.92826 15.8724 6.10221 15.8766 6.27415C15.8809 6.47035 15.8766 6.66858 15.8766 6.86479C15.8766 6.93963 15.8936 6.95986 15.9701 6.97806C16.1464 7.01852 16.3228 7.05493 16.4991 7.09943C16.5714 7.11763 16.6393 7.15202 16.7052 7.18438C16.7647 7.2127 16.7817 7.26934 16.7817 7.33002C16.7817 7.8701 16.7796 8.41219 16.7796 8.95227C16.7796 9.84025 16.7796 10.7282 16.7796 11.6142C16.7796 11.6466 16.7774 11.6789 16.7689 11.7113C16.7519 11.7801 16.701 11.8205 16.6351 11.8428C16.344 11.9459 16.053 12.0471 15.7619 12.1482C15.1203 12.3727 14.4786 12.5973 13.8391 12.8238C13.7903 12.84 13.7435 12.8582 13.6968 12.8784C13.6437 12.9007 13.5884 12.9148 13.5311 12.9067C13.5077 12.9047 13.4843 12.9027 13.4631 12.8946C12.8087 12.664 12.1564 12.4334 11.5021 12.2048C11.1749 12.0896 10.8477 11.9743 10.5205 11.859C10.359 11.8023 10.3293 11.7598 10.3293 11.596C10.3293 10.8921 10.3293 10.1882 10.3293 9.48425ZM11.6147 9.50043C11.6147 9.50043 11.6125 9.50043 11.6147 9.50043C11.6125 9.94139 11.6125 10.3844 11.6125 10.8253C11.6125 10.9022 11.6338 10.9305 11.7103 10.9568C11.8441 11.0033 11.9801 11.0499 12.1139 11.0984C12.5325 11.2461 12.951 11.3917 13.3696 11.5414C13.4992 11.5879 13.6224 11.594 13.752 11.5414C13.8455 11.503 13.9432 11.4726 14.0388 11.4382C14.4956 11.2784 14.9545 11.1186 15.4113 10.9588C15.4814 10.9346 15.5006 10.9083 15.5006 10.8415C15.5006 10.085 15.5006 9.3285 15.5006 8.57199C15.5006 8.4486 15.5006 8.32319 15.4984 8.1998C15.4963 8.1108 15.4729 8.07844 15.3816 8.05417C15.303 8.03394 15.2201 8.01776 15.1394 8.0036C14.9057 7.96517 14.672 7.94494 14.434 7.93887C14.0665 7.93078 13.6989 7.91662 13.3313 7.91864C13.0254 7.92066 12.7173 7.93887 12.4114 7.95303C12.1734 7.96314 11.9397 7.99955 11.7103 8.05619C11.6253 8.07642 11.6125 8.0926 11.6125 8.17351C11.6147 8.62054 11.6147 9.05947 11.6147 9.50043ZM12.3391 6.84456C12.3646 6.84456 12.3816 6.84456 12.4008 6.84456C12.677 6.83243 12.9532 6.81422 13.2294 6.80613C13.7265 6.79399 14.2237 6.80815 14.7187 6.84456C14.7739 6.84861 14.7761 6.84658 14.7761 6.79197C14.7761 6.66454 14.7782 6.5371 14.7739 6.40967C14.7676 6.21751 14.7697 6.02333 14.7463 5.83319C14.6996 5.45089 14.4744 5.18388 14.1068 5.0342C13.8136 4.91486 13.5056 4.91486 13.1996 4.97756C12.8937 5.04027 12.66 5.20209 12.5027 5.45696C12.388 5.64305 12.3476 5.85139 12.3434 6.06378C12.3391 6.24583 12.3413 6.42788 12.3413 6.60992C12.3391 6.68881 12.3391 6.76567 12.3391 6.84456Z" fill="#162229"/>
<path d="M40.7666 11.2744C40.7666 9.74885 40.7666 8.23265 40.7666 6.70714C40.8224 6.70156 40.8726 6.69226 40.921 6.69226C41.7024 6.6904 42.4837 6.67923 43.2651 6.69598C43.8976 6.709 44.4315 6.94899 44.7069 7.54989C44.9692 8.12288 44.9469 8.70704 44.5655 9.23167C44.4353 9.41026 44.2436 9.54235 44.0669 9.70792C44.3236 10.2121 44.5897 10.7348 44.8743 11.2911C44.346 11.2911 43.853 11.2948 43.36 11.2855C43.3116 11.2837 43.2483 11.2055 43.2223 11.1479C43.0642 10.8037 42.8967 10.4614 42.7702 10.1042C42.6902 9.88094 42.5656 9.8121 42.3498 9.84373C42.294 9.85303 42.2363 9.84559 42.16 9.84559C42.16 10.3311 42.16 10.7944 42.16 11.2762C41.6893 11.2744 41.241 11.2744 40.7666 11.2744ZM42.1656 8.61774C42.4949 8.61774 42.8019 8.62891 43.107 8.61402C43.3172 8.60286 43.4474 8.45961 43.4474 8.28102C43.4455 8.08196 43.3265 7.95173 43.1442 7.93871C42.8205 7.91638 42.4949 7.93313 42.1675 7.93313C42.1656 8.16195 42.1656 8.37775 42.1656 8.61774Z" fill="#162229"/>
<path d="M24.7306 9.83974C24.7306 10.329 24.7306 10.7997 24.7306 11.2797C24.2655 11.2797 23.8227 11.2797 23.3613 11.2797C23.3613 9.75603 23.3613 8.2361 23.3613 6.70315C23.4004 6.69943 23.4432 6.69013 23.4841 6.69013C24.2729 6.69013 25.0617 6.67711 25.8486 6.69385C26.4719 6.70687 26.9984 6.93942 27.2774 7.53288C27.5397 8.08913 27.523 8.66026 27.1788 9.18117C27.0467 9.38209 26.8346 9.52906 26.6486 9.71324C26.9035 10.2137 27.1695 10.7364 27.4523 11.2908C26.9258 11.2908 26.4402 11.2964 25.9547 11.2834C25.9007 11.2815 25.83 11.1997 25.8003 11.1383C25.6384 10.7885 25.4729 10.4369 25.3352 10.076C25.2626 9.88439 25.1585 9.81184 24.965 9.83974C24.8961 9.84904 24.8236 9.83974 24.7306 9.83974ZM24.7417 7.90867C24.7417 8.15052 24.7417 8.37377 24.7417 8.60073C25.084 8.60073 25.4263 8.61748 25.7631 8.58957C25.8542 8.58213 25.977 8.4519 26.0086 8.35144C26.0365 8.264 25.99 8.10959 25.9212 8.04262C25.8412 7.96448 25.7035 7.92356 25.5863 7.91425C25.3184 7.89565 25.0468 7.90867 24.7417 7.90867Z" fill="#162229"/>
<path d="M37.9015 11.3857C36.1249 11.3597 34.9956 9.85648 35.5407 8.20075C35.8328 7.31149 36.5044 6.82407 37.403 6.66966C38.4057 6.49851 39.3136 6.72175 39.9591 7.55334C41.0586 8.96722 40.2307 11.0285 38.4652 11.3262C38.2811 11.3578 38.0894 11.3671 37.9015 11.3857ZM39.014 9.00443C39.0215 8.3347 38.5769 7.86216 37.9313 7.85472C37.2951 7.84728 36.8281 8.32539 36.8207 8.98583C36.8151 9.63882 37.2858 10.1374 37.9127 10.143C38.5489 10.1486 39.0066 9.67417 39.014 9.00443Z" fill="#162229"/>
<path d="M27.8408 6.70142C29.0017 6.70142 30.1458 6.70142 31.3086 6.70142C31.3086 7.09209 31.3086 7.48277 31.3086 7.90136C30.6295 7.90136 29.9412 7.90136 29.2435 7.90136C29.2435 8.06321 29.2435 8.19716 29.2435 8.34971C29.9189 8.34971 30.5812 8.34971 31.262 8.34971C31.262 8.76271 31.262 9.15897 31.262 9.57383C30.5923 9.57383 29.9319 9.57383 29.251 9.57383C29.251 9.74127 29.251 9.8901 29.251 10.0668C29.9337 10.0668 30.6146 10.0668 31.3123 10.0668C31.3123 10.4854 31.3123 10.8742 31.3123 11.2779C30.1551 11.2779 29.0054 11.2779 27.8408 11.2779C27.8408 9.75801 27.8408 8.24181 27.8408 6.70142Z" fill="#162229"/>
<path d="M33.4945 10.0745C34.114 10.0745 34.6815 10.0745 35.2638 10.0745C35.2638 10.482 35.2638 10.8708 35.2638 11.2764C34.0657 11.2764 32.8657 11.2764 31.6379 11.2764C31.6379 10.9285 31.6323 10.5862 31.6416 10.2457C31.6435 10.1825 31.6956 10.1136 31.7384 10.0578C32.2518 9.38621 32.769 8.71462 33.2843 8.04302C33.3104 8.00953 33.3327 7.97605 33.3792 7.90907C32.7839 7.90907 32.2202 7.90907 31.6453 7.90907C31.6453 7.49421 31.6453 7.10353 31.6453 6.69983C32.8416 6.69983 34.0266 6.69983 35.234 6.69983C35.234 7.0533 35.2396 7.39375 35.2284 7.73606C35.2266 7.80675 35.167 7.88117 35.1187 7.94256C34.648 8.55648 34.1754 9.16855 33.7029 9.78061C33.6452 9.86247 33.5876 9.94618 33.4945 10.0745Z" fill="#162229"/>
<path d="M20.405 7.907C19.9734 7.907 19.5809 7.907 19.1753 7.907C19.1753 7.5033 19.1753 7.11262 19.1753 6.7052C20.4534 6.7052 21.7184 6.7052 23.0077 6.7052C23.0077 7.09774 23.0077 7.49214 23.0077 7.90886C22.6077 7.90886 22.217 7.90886 21.8021 7.90886C21.8021 9.04183 21.8021 10.1543 21.8021 11.2799C21.3277 11.2799 20.8794 11.2799 20.4069 11.2799C20.405 10.1618 20.405 9.04927 20.405 7.907Z" fill="#162229"/>
<path d="M10.3271 80.2317C13.1105 72.119 25.0043 71.553 35.4005 68.7585C43.4869 66.5842 50.7109 64.3239 54.2181 52.9272C50.7783 74.482 37.1021 78.4329 38.1762 91.6545H18.0959C17.2201 89.1607 14.2385 84.6383 10.3271 80.2317Z" fill="url(#paint1_linear)"/>
<path d="M19.2589 91.6545C20.7934 78.3572 4.99039 74.5529 2.64266 48.2612C2.64266 27.8487 2.67719 3.09048 2.67719 3.09048L0.878034 1.29089L0.00914644 2.87246C0.00914644 2.87246 0.00722836 38.1917 0.00722836 51.2913C-0.359124 73.7677 13.2956 78.287 19.2589 91.6545Z" fill="url(#paint2_linear)"/>
<rect x="35" y="47" width="13" height="6.94252" rx="1" fill="#00B43C"/>
<path d="M41.05 52C40.9408 52 40.8315 51.9494 40.7691 51.8483L40.5141 51.5L40.077 50.893C39.9522 50.7244 39.9834 50.4884 40.1395 50.3535C40.2956 50.2186 40.5141 50.2524 40.6389 50.421L40.9355 50.834L41.05 50.9884L42.3611 49.1507C42.4859 48.9821 42.7044 48.9483 42.8605 49.0832C43.0166 49.2181 43.0478 49.4541 42.923 49.6227L41.331 51.8483C41.2529 51.9326 41.1593 52 41.05 52Z" fill="white"/>
<defs>
<linearGradient id="paint0_linear" x1="47.3816" y1="90.809" x2="46.8903" y2="2.97763" gradientUnits="userSpaceOnUse">
<stop stop-color="#162229"/>
<stop offset="0.4421" stop-color="#29363D"/>
<stop offset="0.4973" stop-color="#253239"/>
<stop offset="0.7508" stop-color="#1A262D"/>
<stop offset="1" stop-color="#162229"/>
</linearGradient>
<linearGradient id="paint1_linear" x1="32.2729" y1="89.5783" x2="32.2729" y2="56.2057" gradientUnits="userSpaceOnUse">
<stop/>
<stop offset="0.4421" stop-color="#162229"/>
<stop offset="1" stop-color="#162229"/>
</linearGradient>
<linearGradient id="paint2_linear" x1="9.41895" y1="90.8091" x2="9.90953" y2="2.97754" gradientUnits="userSpaceOnUse">
<stop/>
<stop offset="0.4421" stop-color="#666666" stop-opacity="0.1"/>
<stop offset="0.4862" stop-color="#61666A" stop-opacity="0.1712"/>
<stop offset="0.8179" stop-color="#406883" stop-opacity="0.7062"/>
<stop offset="1" stop-color="#34688C"/>
</linearGradient>
</defs>
</svg>
