<?xml version="1.0" encoding="utf-8"?>
<!-- Generator: Adobe Illustrator 25.4.1, SVG Export Plug-In . SVG Version: 6.00 Build 0)  -->
<svg version="1.1" id="Layer_1" xmlns="http://www.w3.org/2000/svg" xmlns:xlink="http://www.w3.org/1999/xlink" x="0px" y="0px"
	 viewBox="0 0 100 100" style="enable-background:new 0 0 100 100;" xml:space="preserve">
<style type="text/css">
	.st0{fill:#3EAD5A;}
	.st1{fill:#FFFFFF;}
</style>
<path class="st0" d="M17.1,2.1h66.6c8.1,0,14.6,6.5,14.6,14.6v66.6c0,8.1-6.5,14.6-14.6,14.6H17.1C9,98,2.4,91.4,2.4,83.3V16.7
	C2.4,8.6,9,2.1,17.1,2.1z"/>
<path class="st1" d="M21.1,51.4L21.1,51.4c-1.2,0-2.1,1-2.1,2.1c0,0,0,0,0,0c0,1.2,1,2.1,2.1,2.1l0,0c1.2,0,2.1-0.9,2.1-2.1
	S22.3,51.4,21.1,51.4L21.1,51.4z"/>
<path class="st1" d="M33.2,33.6l-0.3,0.2c-2.3,0.1-4.1,2.1-4.1,4.4l0,2.7h-2.7c-1.2,0-2.2,1.1-2.2,2.4c0,0.6,0.2,1.2,0.6,1.6
	c0.4,0.5,1,0.7,1.6,0.7l0,0h2.5l0,5.5l-2.5,0c-0.6,0-1.1,0.2-1.5,0.7c-0.4,0.4-0.7,1-0.7,1.6c0,0.6,0.2,1.2,0.6,1.6
	c0.4,0.4,1,0.7,1.5,0.7l0,0h2.5l0.1,2.8c0,2.4,2,4.4,4.4,4.4h0.3L33.2,34L33.2,33.6z"/>
<path class="st1" d="M76.1,50.9L76.1,50.9h-2c0.1-0.9,0.2-1.8,0.2-2.8c0-0.9-0.1-1.8-0.2-2.7h2c0.6,0,1.2-0.3,1.6-0.8
	c0.9-1,0.8-2.5-0.1-3.4c-0.4-0.4-0.9-0.6-1.4-0.6l0,0h-3c-3.2-8.2-12.4-14.4-21.6-14.4h-0.1l-11.3,0.1c-2.6,0-4.6,2.3-4.6,5
	l0.2,31.7L51.2,63c4.2,0,8-1.4,10.8-4c2.9-2.6,4.5-6.4,4.5-10.3c-0.1-8.5-6.5-15-14.9-15h-0.1l-9.7,0.1v0.6c0.1,2.3,2.5,3.6,5,3.6
	l1.6-0.1l4.4,0h0.1c2.7-0.1,5.2,1,7,3c1.7,1.9,2.7,4.6,2.7,7.5c0,2.7-1.1,5.4-3.2,7.1c-2.2,1.8-4.9,2.8-7.8,2.7l-11.1-0.2L40,30.8
	l11.5-0.1h0.1c4.7,0,9.2,1.9,12.6,5.1c3.6,3.3,5.5,7.7,5.5,12.3c0.1,9.6-7.7,17.5-17.2,17.5L38,65.7v0.6c0,2,1.6,3.6,3.6,3.6
	c0,0,0,0,0,0h10.9c9,0,17.5-5.9,20.6-14.4l3,0.1c0.6,0,1.1-0.2,1.5-0.6c0.4-0.5,0.7-1.1,0.7-1.7C78.3,52,77.3,50.9,76.1,50.9z"/>
<path class="st1" d="M82.8,41.6c-0.4-0.4-1-0.6-1.6-0.6l0,0C80,41,79,42,79,43.2c0,1.2,1,2.2,2.3,2.3l0,0c1.2,0,2.2-1,2.2-2.3
	C83.5,42.6,83.2,42.1,82.8,41.6z"/>
</svg>
