<?xml version="1.0" encoding="UTF-8"?>
<svg version="1.1" xmlns="http://www.w3.org/2000/svg" width="400" height="400">
<path d="M0 0 C132 0 264 0 400 0 C400 132 400 264 400 400 C268 400 136 400 0 400 C0 268 0 136 0 0 Z " fill="#694BFE" transform="translate(0,0)"/>
<path d="M0 0 C0.73749257 -0.00453111 1.47498514 -0.00906223 2.23482597 -0.01373065 C4.68899474 -0.02632137 7.14294009 -0.02475779 9.59713745 -0.02310181 C11.36343672 -0.02909013 13.12973337 -0.03589637 14.89602661 -0.04345703 C19.68093325 -0.06108678 24.46576831 -0.06581095 29.25070429 -0.0670886 C32.24066948 -0.06851172 35.23061655 -0.07278421 38.22057724 -0.07808304 C48.65242415 -0.09656863 59.08422002 -0.10475491 69.51608276 -0.10317993 C79.24045117 -0.10197679 88.96459824 -0.12311664 98.6889106 -0.15466726 C107.04151298 -0.18080196 115.3940429 -0.19154851 123.74668586 -0.19026911 C128.73400596 -0.18975894 133.72112899 -0.19547367 138.70840836 -0.21662521 C143.39527091 -0.23596199 148.08174733 -0.23616347 152.76862335 -0.22159195 C154.48874601 -0.21949753 156.20889257 -0.22424232 157.92897415 -0.23631287 C160.27667327 -0.25172162 162.6230334 -0.24248777 164.97070312 -0.22705078 C166.28438433 -0.22814032 167.59806553 -0.22922985 168.95155525 -0.2303524 C172.9341428 0.35155345 174.60216929 1.37205586 177.35836792 4.26742554 C177.85816364 6.97308946 178.03902868 9.04390832 177.98727417 11.74398804 C177.98968613 12.46927704 177.99209808 13.19456604 177.99458313 13.9418335 C177.99360507 15.47668928 177.98022062 17.0115805 177.95529175 18.54623413 C177.92127449 20.86471552 177.93455606 23.17931696 177.95407104 25.49789429 C177.94334779 36.47318496 176.24453372 45.64736866 169.26852417 54.44320679 C163.64223284 59.81637253 156.10447416 63.37659815 148.30010986 63.40545654 C147.50130402 63.41090988 146.70249817 63.41636322 145.87948608 63.42198181 C145.01190674 63.42302414 144.14432739 63.42406647 143.25045776 63.42514038 C142.32959381 63.4302211 141.40872986 63.43530182 140.45996094 63.4405365 C138.46074751 63.45123165 136.46152218 63.45985518 134.46229172 63.46665573 C131.29189607 63.47846513 128.12163539 63.49792516 124.95129395 63.51977539 C115.93712903 63.58130989 106.92297725 63.63534652 97.90866089 63.66879272 C92.39259825 63.68980879 86.87678086 63.72517078 81.36085892 63.76955032 C79.26467411 63.78365884 77.1684459 63.79242106 75.07221603 63.79560471 C72.12876724 63.80054675 69.18596194 63.8237904 66.24264526 63.85092163 C65.3872113 63.8479155 64.53177734 63.84490936 63.65042114 63.84181213 C51.80162541 64.00294312 41.45725425 68.4923405 32.60836792 76.32992554 C23.64539585 85.8026401 22.16330977 97.50234882 22.10836792 109.82992554 C22.08774292 110.95978882 22.06711792 112.0896521 22.04586792 113.25375366 C22.00228256 122.71722544 22.86456554 131.90134938 28.79586792 139.64242554 C29.37207886 140.41328491 29.94828979 141.18414429 30.54196167 141.97836304 C31.14137573 142.73375366 31.74078979 143.48914429 32.35836792 144.26742554 C32.97196167 145.12207397 33.58555542 145.97672241 34.21774292 146.85726929 C36.66600486 149.61379779 38.85633502 150.86786421 42.17086792 152.45492554 C43.16731323 152.94348022 44.16375854 153.43203491 45.19039917 153.93539429 C51.80152635 156.71516539 57.56556146 157.56280675 64.63912964 157.55453491 C65.99423141 157.56478447 65.99423141 157.56478447 67.37670898 157.57524109 C69.32838348 157.58877626 71.28009291 157.59786335 73.23180771 157.60295105 C76.32661858 157.61127931 79.42113989 157.63182123 82.51586914 157.65548706 C89.08832545 157.70359541 95.66081081 157.73659606 102.23336792 157.76742554 C109.84631569 157.80317687 117.45912127 157.84522007 125.07193375 157.90336609 C128.1101297 157.9233278 131.14821479 157.93173257 134.1864624 157.93966675 C136.06391799 157.9526489 137.94136995 157.96617063 139.81881714 157.98031616 C140.65443176 157.97933426 141.49004639 157.97835236 142.35098267 157.9773407 C153.27951961 158.0913285 161.31287145 160.59684358 169.37399292 168.15805054 C177.3153115 176.63323927 177.87082634 185.12342482 177.80441284 196.21322632 C177.79585783 198.395 177.82480213 200.57418771 177.85641479 202.75570679 C177.85802622 204.15804976 177.85745039 205.56039732 177.85446167 206.96273804 C177.8563147 208.22102417 177.85816772 209.4793103 177.8600769 210.77572632 C177.24862561 215.03118928 176.15269837 217.00718426 173.35836792 220.26742554 C170.06736565 221.01409245 170.06736565 221.01409245 166.07318115 221.00914001 C165.33769613 221.01638326 164.60221112 221.02362651 163.84443867 221.03108925 C161.37805551 221.04800719 158.91400197 221.02201538 156.44772339 220.9961853 C154.68012357 220.99940408 152.91252686 221.00522061 151.14494324 221.01344299 C146.34063103 221.02799976 141.53715341 221.00500366 136.7329421 220.97458386 C131.70209801 220.94823333 126.67127989 220.95351504 121.64038086 220.95466614 C113.18490651 220.95185488 104.72975474 220.92579504 96.27438354 220.88485718 C86.51326437 220.83777039 76.75249929 220.8218597 66.99127471 220.82406384 C56.58901942 220.8260952 46.18689984 220.80523296 35.78468561 220.77772403 C32.79440827 220.77134534 29.80415299 220.76920251 26.81386948 220.76800728 C22.1007601 220.76497932 17.38794464 220.74654664 12.67493248 220.71650887 C10.95048639 220.70779184 9.22600646 220.70404594 7.50153923 220.70579147 C-6.71962878 220.71473403 -18.83332329 219.16669178 -29.83694458 209.29867554 C-37.98318863 200.74976543 -42.74978689 190.8540685 -42.78207397 179.03886414 C-42.78778412 177.78431931 -42.79349426 176.52977448 -42.79937744 175.23721313 C-42.80062265 173.85446177 -42.80174778 172.47171029 -42.80276489 171.08895874 C-42.80739642 169.62663143 -42.81242153 168.16430531 -42.81781006 166.70198059 C-42.83090523 162.73479005 -42.83737357 158.76761641 -42.84182072 154.80040765 C-42.84475656 152.31864398 -42.84886237 149.83688488 -42.85332489 147.35512352 C-42.86699325 139.58101242 -42.87666271 131.80691181 -42.88052678 124.03278953 C-42.88500375 115.07614291 -42.9025376 106.11964919 -42.93152738 97.16304904 C-42.95318816 90.22866358 -42.96323343 83.294321 -42.9645679 76.35990208 C-42.96561293 72.22363758 -42.971456 68.08751693 -42.98938751 63.95128822 C-43.00594409 60.05653346 -43.00798721 56.16202952 -42.9992485 52.26725197 C-42.99848213 50.84432805 -43.00276772 49.42139023 -43.01270676 47.99850082 C-43.10209009 34.39543464 -40.80588983 23.02870476 -31.34475708 12.77914429 C-22.38110278 4.27480767 -12.45839136 0.03176775 0 0 Z " fill="#FEFEFE" transform="translate(132.64163208007813,89.73257446289063)"/>
<path d="M0 0 C1.44310295 -0.01051392 1.44310295 -0.01051392 2.9153595 -0.02124023 C6.07546399 -0.0387535 9.23466279 -0.02721993 12.39477539 -0.01367188 C14.60380728 -0.01636892 16.812838 -0.0202531 19.02186584 -0.02526855 C23.64424987 -0.03115478 28.26632398 -0.02262943 32.88867188 -0.00390625 C38.79773386 0.01886901 44.70606847 0.00576317 50.61510372 -0.01819611 C55.17490564 -0.03268899 59.73453673 -0.02803181 64.29434395 -0.01768494 C66.47232717 -0.01502661 68.65032616 -0.01825574 70.82829094 -0.02760315 C73.87943128 -0.0378246 76.92941404 -0.02218845 79.98046875 0 C81.31569077 -0.01214539 81.31569077 -0.01214539 82.67788696 -0.02453613 C90.06354308 0.07437437 95.56283875 2.37470294 101.80493164 6.20507812 C109.36367615 13.97378776 110.34632057 22.35801323 110.37402344 32.65527344 C110.27936313 38.7110904 109.50722307 43.41320004 106.05493164 48.51757812 C105.35368164 49.59007812 104.65243164 50.66257813 103.92993164 51.76757812 C96.86301685 58.52723575 88.7875202 60.66447255 79.26000977 60.69458008 C78.36040527 60.70115128 77.46080078 60.70772247 76.53393555 60.7144928 C73.55135005 60.73422947 70.56881504 60.74589246 67.58618164 60.75585938 C66.05531166 60.76197267 66.05531166 60.76197267 64.49351501 60.76820946 C59.08625491 60.78907695 53.67902019 60.80337281 48.27172852 60.81274414 C42.70469557 60.82377859 37.13806563 60.85814239 31.57117462 60.89791584 C27.2764007 60.92415782 22.98172142 60.93244296 18.68687439 60.93602562 C16.63611648 60.94087607 14.58536236 60.95244571 12.53468323 60.97106361 C-12.01698458 61.18001672 -12.01698458 61.18001672 -20.88256836 53.26757812 C-28.29536644 45.00150832 -29.4238591 36.22797188 -29.21850586 25.50585938 C-28.66661858 17.45618921 -25.22669724 12.37484787 -20.11694336 6.34179688 C-13.88708613 1.109165 -7.97279633 -0.07235724 0 0 Z " fill="#FDFCFE" transform="translate(199.945068359375,170.482421875)"/>
<path d="M0 0 C0.33 0.99 0.66 1.98 1 3 C1.66 3 2.32 3 3 3 C8.58574741 8.56381744 9.54823812 14.89296439 9.62109375 22.40234375 C9.61230141 25.9161539 9.52915178 29.4250334 9.4375 32.9375 C9.41594056 34.74541274 9.39703843 36.55335923 9.38085938 38.36132812 C9.21555555 51.35333334 9.21555555 51.35333334 8 55 C4.39952793 56.20015736 1.11787359 56.14485213 -2.62963867 56.14044189 C-3.80637162 56.14489858 -3.80637162 56.14489858 -5.00687695 56.1494453 C-7.64391826 56.15813904 -10.28091422 56.15964109 -12.91796875 56.16113281 C-14.80514625 56.16576039 -16.69232282 56.17078496 -18.57949829 56.17617798 C-23.71158945 56.18930697 -28.84366753 56.19574753 -33.97577286 56.20018864 C-37.17943753 56.20311763 -40.38309861 56.20722203 -43.58676147 56.21169281 C-53.60286219 56.22536701 -63.61895472 56.23503491 -73.63506413 56.2388947 C-85.21173925 56.24338003 -96.78829658 56.26095027 -108.36493587 56.2898953 C-117.30509911 56.31147569 -126.24522911 56.32159697 -135.18541813 56.32293582 C-140.52928759 56.32398616 -145.8730463 56.32994288 -151.21688843 56.34775543 C-156.24014479 56.36417397 -161.2632064 56.36642204 -166.28647995 56.35761642 C-168.13321833 56.35684279 -169.97996692 56.36123144 -171.82667923 56.37107468 C-174.34147528 56.38369626 -176.8555712 56.37797141 -179.37036133 56.36749268 C-180.47477711 56.37957728 -180.47477711 56.37957728 -181.60150433 56.39190602 C-186.52941394 56.34364853 -186.52941394 56.34364853 -188.91435242 54.60203171 C-190 53 -190 53 -191 51 C-195.00197849 48.46028288 -198.22953336 46.57823838 -203 46 C-205.125 39.25 -205.125 39.25 -204 37 C-203.57589844 37.53109375 -203.15179688 38.0621875 -202.71484375 38.609375 C-198.80249902 43.3213858 -195.49297688 46.30344771 -190 49 C-189.01 49.53625 -188.02 50.0725 -187 50.625 C-181.15228358 53.30520336 -175.69720915 54.29678953 -169.3069458 54.27415466 C-168.19246492 54.28200968 -168.19246492 54.28200968 -167.05546927 54.29002339 C-164.58282243 54.3049439 -162.11038396 54.30572675 -159.63769531 54.30639648 C-157.85829828 54.31402282 -156.07890453 54.32245113 -154.29951477 54.33161926 C-149.47962721 54.35351211 -144.65980306 54.36235502 -139.83987141 54.36744571 C-136.82915052 54.37109251 -133.81844619 54.37733396 -130.80773163 54.3844471 C-120.30687226 54.40891406 -109.80606219 54.42198956 -99.30517578 54.42553711 C-89.51028766 54.42918023 -79.71571137 54.45913808 -69.9209187 54.50094169 C-61.5114475 54.5355776 -53.10208012 54.55108431 -44.69253802 54.55178314 C-39.66945976 54.55257762 -34.64670003 54.56139599 -29.62369537 54.58978081 C-24.90559159 54.61584998 -20.18807323 54.6182296 -15.46993065 54.60212517 C-13.73606025 54.60030231 -12.00215698 54.60707634 -10.26835823 54.62294388 C-7.90657562 54.64324671 -5.5468727 54.63294936 -3.18511963 54.61473083 C-2.14899721 54.63453079 -2.14899721 54.63453079 -1.09194303 54.65473074 C1.04959915 54.67253297 1.04959915 54.67253297 4 54 C8.43235109 48.63579894 7.4851908 42.03954569 7.44604492 35.4453125 C7.43757729 33.26985676 7.46624724 31.0970689 7.49804688 28.921875 C7.5565057 17.44821836 4.96240299 10.0898039 -2 1 C-1.34 0.67 -0.68 0.34 0 0 Z " fill="#6751DA" transform="translate(302,255)"/>
<path d="M0 0 C0.70738032 0.0030972 1.41476065 0.00619441 2.14357674 0.00938547 C3.26896707 0.0025888 3.26896707 0.0025888 4.41709256 -0.00434518 C6.94440067 -0.01705895 9.47149521 -0.01536435 11.99883187 -0.01371634 C13.80542447 -0.01969727 15.61201451 -0.0265018 17.41860116 -0.03407156 C22.33596343 -0.05178367 27.25325617 -0.05642914 32.17064726 -0.05770314 C36.27116972 -0.05959893 40.37167586 -0.0669528 44.47219205 -0.07404733 C54.14449181 -0.09034887 63.81675433 -0.09521469 73.48906624 -0.09379447 C83.47634922 -0.09259272 93.46341619 -0.11369697 103.45064449 -0.14528179 C112.0162919 -0.17140847 120.58186862 -0.18216327 129.14755559 -0.18088365 C134.26737857 -0.18037293 139.38700973 -0.18611652 144.50679314 -0.20723975 C149.32162411 -0.22656133 154.13607909 -0.22678844 158.95092309 -0.21220648 C160.7198381 -0.21010967 162.48877628 -0.21487095 164.25765145 -0.2269274 C166.66945411 -0.24230335 169.07994796 -0.23312371 171.49172127 -0.21766531 C172.54609959 -0.233096 172.54609959 -0.233096 173.62177849 -0.24883842 C177.0043897 -0.20080222 178.68121761 0.07069281 181.38037598 2.18274248 C183.12651862 4.52030154 183.43514291 5.52650039 183.39873421 8.40278757 C183.39843209 9.20331552 183.39812996 10.00384347 183.39781868 10.82862985 C183.37717354 11.68293588 183.3565284 12.53724191 183.33525765 13.417436 C183.32959786 14.29961801 183.32393807 15.18180002 183.31810677 16.09071481 C183.29574856 18.90330314 183.24555397 21.71460895 183.19463265 24.526811 C183.1745669 26.43564675 183.15631626 28.3445025 183.13994515 30.2533735 C183.09588565 34.92834545 183.02686249 39.60236092 182.94463265 44.276811 C181.95463265 44.606811 180.96463265 44.936811 179.94463265 45.276811 C180.1047181 44.45011911 180.26480355 43.62342721 180.42974007 42.77168405 C180.99222941 38.95374432 181.14247647 35.20899815 181.1829139 31.35884225 C181.19502152 30.25025102 181.19502152 30.25025102 181.20737374 29.11926401 C181.22112761 27.56706665 181.23188814 26.01484015 181.23979867 24.46260202 C181.25139454 22.87494681 181.27196437 21.28733282 181.3013221 19.69990671 C181.34382293 17.39845104 181.36013316 15.09814055 181.3704139 12.79634225 C181.39667603 11.73223878 181.39667603 11.73223878 181.42346871 10.64663827 C181.42618929 6.75210733 181.42618929 6.75210733 179.38190758 3.58895528 C176.08962917 1.81650679 173.12317164 1.87082257 169.47826302 1.91604745 C168.72347169 1.91348418 167.96868035 1.9109209 167.19101655 1.90827996 C164.66042947 1.90333631 162.13043826 1.91984422 159.59990609 1.93623483 C157.78653139 1.93708098 155.97315567 1.9366062 154.15978158 1.93490732 C149.23446589 1.93404546 144.30936873 1.95170207 139.38410389 1.97262919 C134.23780781 1.99136424 129.09150689 1.99314393 123.94518197 1.99670541 C114.19879258 2.0060352 104.45250397 2.03066165 94.706159 2.06075388 C83.61076553 2.09426881 72.51536729 2.11077659 61.41993582 2.12584019 C38.59477886 2.15721037 15.7697114 2.20998905 -7.05536735 2.276811 C-4.62123146 -0.15732488 -3.32211993 0.03334681 0 0 Z " fill="#6852DB" transform="translate(128.0553673505783,88.723188996315)"/>
<path d="M0 0 C0.96633362 -0.00014603 1.93266724 -0.00029205 2.92828369 -0.0004425 C6.1152167 0.00025291 9.3020909 0.008028 12.48901367 0.01586914 C14.70147164 0.01773464 16.91393002 0.01915792 19.12638855 0.02015686 C24.94441878 0.02397167 30.76242398 0.03379314 36.58044434 0.04486084 C42.51936504 0.05509721 48.45828981 0.05965925 54.3972168 0.06469727 C66.04631633 0.07541632 77.69539729 0.09248033 89.34448242 0.11352539 C89.83948242 1.59852539 89.83948242 1.59852539 90.34448242 3.11352539 C89.08660416 3.10242233 87.82872589 3.09131927 86.5327301 3.07987976 C74.65968468 2.97837898 62.78672766 2.90349984 50.91334629 2.85446453 C44.80955946 2.82840712 38.70612381 2.79307855 32.60253906 2.73632812 C26.70863852 2.68187229 20.81507508 2.65207586 14.92094231 2.63913918 C12.67591994 2.62992376 10.43091534 2.61192812 8.18603706 2.58487511 C5.03345464 2.54840546 1.88225271 2.54358767 -1.27050781 2.54589844 C-2.19192566 2.52792206 -3.11334351 2.50994568 -4.06268311 2.49142456 C-10.7752123 2.54441852 -15.07753389 4.48125115 -20.65551758 8.11352539 C-21.64551758 8.60852539 -21.64551758 8.60852539 -22.65551758 9.11352539 C-21.69447174 5.55765577 -21.02834709 4.3455082 -17.84301758 2.36352539 C-11.84888522 0.01288525 -6.35699118 -0.02517788 0 0 Z " fill="#8774EC" transform="translate(201.655517578125,168.886474609375)"/>
<path d="M0 0 C0.99 0 1.98 0 3 0 C2.67566483 1.18353058 2.35132965 2.36706116 2.01716614 3.5864563 C0.55549394 10.21749481 0.71196858 16.8593703 0.7253418 23.61669922 C0.72098732 25.07799539 0.71580173 26.53928928 0.70985413 28.00057983 C0.69653178 31.94696661 0.69587789 35.89325722 0.69841743 39.83966208 C0.69949178 43.14457113 0.69459193 46.4494611 0.689812 49.75436604 C0.67874014 57.55679909 0.67826627 65.359184 0.68432617 73.16162109 C0.69036412 81.1874565 0.67805419 89.21311651 0.6567561 97.238922 C0.63909303 104.15133139 0.63314615 111.06368519 0.63639385 117.9761163 C0.63819941 122.09501555 0.63564369 126.21378967 0.62167931 130.3326683 C0.60902869 134.20861719 0.61111272 138.0842943 0.62409019 141.96023941 C0.6264399 143.37467799 0.62377956 144.78913614 0.61546707 146.20355225 C0.56958867 154.62355728 1.26983129 162.00560444 4 170 C1 169 1 169 -0.17204762 166.86141586 C-1.13814898 163.52255504 -1.24882206 160.69501244 -1.24723816 157.21734619 C-1.24965257 156.5481606 -1.25206699 155.87897501 -1.25455457 155.18951106 C-1.2601754 152.95469094 -1.25154099 150.7201587 -1.24291992 148.48535156 C-1.24399317 146.88034488 -1.24593248 145.27533857 -1.24867249 143.67033386 C-1.25351561 139.31735749 -1.24587291 134.96448378 -1.23571944 130.61151981 C-1.22693529 126.05959757 -1.22869642 121.5076785 -1.2290802 116.95574951 C-1.22814405 109.31602255 -1.21946472 101.67633535 -1.20581055 94.03662109 C-1.19006308 85.19275484 -1.18481324 76.34893206 -1.1855461 67.5050528 C-1.18615541 59.00531296 -1.18106032 50.50558733 -1.17275429 42.00585175 C-1.16921579 38.38384643 -1.16739024 34.76184614 -1.16686058 31.13983917 C-1.16585954 26.88156849 -1.15978259 22.62333462 -1.14969444 18.36507607 C-1.14676246 16.79808846 -1.14554548 15.23109661 -1.14612198 13.66410637 C-1.14660924 11.53427094 -1.14099124 9.40454015 -1.13371277 7.27471924 C-1.13203692 6.08011707 -1.13036108 4.88551491 -1.12863445 3.65471268 C-1 1 -1 1 0 0 Z " fill="#6B55E0" transform="translate(90,116)"/>
<path d="M0 0 C0.680625 0.70125 1.36125 1.4025 2.0625 2.125 C3.0367486 3.08833265 4.01636797 4.04625047 5 5 C5.51949219 5.50402344 6.03898437 6.00804687 6.57421875 6.52734375 C13.61439029 12.97673166 21.93585112 15.50215521 31 18 C31 18.33 31 18.66 31 19 C28.89646505 19.0810206 26.79204048 19.13919907 24.6875 19.1875 C23.51574219 19.22230469 22.34398437 19.25710938 21.13671875 19.29296875 C18 19 18 19 16.14453125 17.61328125 C15 16 15 16 14 14 C9.99802151 11.46028288 6.77046664 9.57823838 2 9 C0 2.25 0 2.25 0 0 Z " fill="#6C54EB" transform="translate(97,292)"/>
<path d="M0 0 C0.33 0.99 0.66 1.98 1 3 C1.66 3 2.32 3 3 3 C8.58574741 8.56381744 9.54823812 14.89296439 9.62109375 22.40234375 C9.61230141 25.9161539 9.52915178 29.4250334 9.4375 32.9375 C9.41594056 34.74541274 9.39703843 36.55335923 9.38085938 38.36132812 C9.21555555 51.35333334 9.21555555 51.35333334 8 55 C7.01 54.67 6.02 54.34 5 54 C5.32307129 53.32291992 5.64614258 52.64583984 5.97900391 51.94824219 C7.81660502 46.64196025 7.37185155 41.00780021 7.37060547 35.4453125 C7.37495991 33.27002533 7.41126106 31.0968013 7.44921875 28.921875 C7.54290943 17.42901442 4.97539403 10.10676443 -2 1 C-1.34 0.67 -0.68 0.34 0 0 Z " fill="#6F59E2" transform="translate(302,255)"/>
<path d="M0 0 C0.93092208 2.51862966 1.14010478 3.64238094 0.14453125 6.18359375 C-1.20948092 8.47469353 -2.57931328 10.74956747 -4 13 C-4.53625 13.886875 -5.0725 14.77375 -5.625 15.6875 C-9.32453448 19.28967831 -15.65252856 24 -21 24 C-21 23.34 -21 22.68 -21 22 C-19.54462432 21.16151196 -18.08559627 20.32936066 -16.625 19.5 C-15.40683594 18.80390625 -15.40683594 18.80390625 -14.1640625 18.09375 C-12 17 -12 17 -10 17 C-9.773125 16.278125 -9.54625 15.55625 -9.3125 14.8125 C-8 12 -8 12 -5.5625 9.625 C-2.52580522 6.51423949 -1.50304625 4.03449258 0 0 Z " fill="#F1EBFE" transform="translate(308,128)"/>
<path d="M0 0 C4 0 4 0 6.5625 2.25 C11.67123288 8.01369863 11.67123288 8.01369863 13 12 C13.66 12.33 14.32 12.66 15 13 C15.05784708 17.12494151 15.09354407 21.24977944 15.125 25.375 C15.15013672 27.1384375 15.15013672 27.1384375 15.17578125 28.9375 C15.18222656 30.05898437 15.18867188 31.18046875 15.1953125 32.3359375 C15.20578613 33.37282715 15.21625977 34.4097168 15.22705078 35.47802734 C15 38 15 38 13 40 C13.02094727 39.41621582 13.04189453 38.83243164 13.06347656 38.23095703 C14.03429269 21.00009418 14.03429269 21.00009418 6.5 6.125 C5.675 5.42375 4.85 4.7225 4 4 C2.66666667 2.66666667 1.33333333 1.33333333 0 0 Z " fill="#6F59DF" transform="translate(296,173)"/>
<path d="M0 0 C2.475 0.495 2.475 0.495 5 1 C5.3403125 2.794375 5.3403125 2.794375 5.6875 4.625 C6.82601826 9.20346985 8.67621563 11.67621563 12 15 C12.99 15.33 13.98 15.66 15 16 C15 15.34 15 14.68 15 14 C15.99 14 16.98 14 18 14 C18 14.99 18 15.98 18 17 C15.5 18.0625 15.5 18.0625 12 18 C6.39565222 13.44780947 2.8094101 7.55529022 0 1 C0 0.67 0 0.34 0 0 Z " fill="#6F58E6" transform="translate(156,220)"/>
<path d="M0 0 C0.66 0 1.32 0 2 0 C1.731875 0.66 1.46375 1.32 1.1875 2 C0.795625 2.99 0.40375 3.98 0 5 C-0.515625 6.093125 -1.03125 7.18625 -1.5625 8.3125 C-4.05077114 14.80965242 -3.75816358 22.12850991 -4 29 C-4.33 29 -4.66 29 -5 29 C-5.95744681 8.27659574 -5.95744681 8.27659574 0 0 Z " fill="#6A53DF" transform="translate(175,179)"/>
<path d="M0 0 C0.61875 0.556875 1.2375 1.11375 1.875 1.6875 C5.979443 4.72478782 10.39752391 6.81940939 15 9 C14.67 9.66 14.34 10.32 14 11 C11.4375 11.625 11.4375 11.625 9 12 C9 11.01 9 10.02 9 9 C8.2575 8.938125 7.515 8.87625 6.75 8.8125 C3.12870887 7.74257307 2.01287885 6.13114488 0 3 C0 2.01 0 1.02 0 0 Z " fill="#F1EBFC" transform="translate(166,236)"/>
<path d="M0 0 C1.32 0.66 2.64 1.32 4 2 C3.52949219 2.39832031 3.05898437 2.79664062 2.57421875 3.20703125 C1.95160156 3.73683594 1.32898438 4.26664062 0.6875 4.8125 C0.07261719 5.33457031 -0.54226562 5.85664062 -1.17578125 6.39453125 C-2.85424679 7.87172469 -4.43882034 9.40039131 -6 11 C-6.75 8.75 -6.75 8.75 -7 6 C-5.25 3.6875 -5.25 3.6875 -3 2 C-2.01 2 -1.02 2 0 2 C0 1.34 0 0.68 0 0 Z " fill="#FBFBF3" transform="translate(107,100)"/>
<path d="M0 0 C5.26713787 -0.14235508 8.62308036 1.04262186 13 4 C13 4.66 13 5.32 13 6 C13.99 6.33 14.98 6.66 16 7 C10.36382567 6.53031881 5.78582459 5.09327687 1 2 C0.67 1.34 0.34 0.68 0 0 Z " fill="#6E56E8" transform="translate(172,240)"/>
<path d="M0 0 C2.01822917 0.29296875 4.03645833 0.5859375 6.0546875 0.87890625 C8.08140667 1.1684297 8.08140667 1.1684297 10 0 C11.66619446 -0.0396713 13.33391013 -0.04384447 15 0 C15 0.66 15 1.32 15 2 C14.01 2.66 13.02 3.32 12 4 C11.67 4.99 11.34 5.98 11 7 C9.72881136 6.20890398 8.45806377 5.41709922 7.1875 4.625 C6.47980469 4.18414062 5.77210938 3.74328125 5.04296875 3.2890625 C3.34567961 2.21811524 1.66985642 1.11323761 0 0 Z " fill="#7058EC" transform="translate(288,249)"/>
<path d="M0 0 C0.33 0 0.66 0 1 0 C1.05425013 2.87525669 1.09379277 5.74947646 1.125 8.625 C1.14175781 9.43324219 1.15851563 10.24148437 1.17578125 11.07421875 C1.21420986 15.80093815 0.82737094 19.55387702 -1 24 C-1.66 23.67 -2.32 23.34 -3 23 C-3 21.02 -3 19.04 -3 17 C-2.34 16.67 -1.68 16.34 -1 16 C-1.01160156 15.34773437 -1.02320313 14.69546875 -1.03515625 14.0234375 C-1.08470994 9.2238086 -0.99413751 4.72215315 0 0 Z " fill="#F0E9FD" transform="translate(309,192)"/>
<path d="M0 0 C1.5625 1.75 1.5625 1.75 3 4 C2.6875 6.25 2.6875 6.25 2 8 C0.68 7.34 -0.64 6.68 -2 6 C-3.65 7.32 -5.3 8.64 -7 10 C-5.6062718 5.56541027 -3.39417765 3.12621626 0 0 Z " fill="#EEE9F8" transform="translate(181,176)"/>
<path d="M0 0 C2.375 0.25 2.375 0.25 5 1 C5.6837045 2.32467746 6.34964186 3.65863633 7 5 C9.53770003 6.28254644 9.53770003 6.28254644 12 7 C12 7.99 12 8.98 12 10 C8.78727751 8.56006357 6.3793336 6.76981628 3.75 4.4375 C3.04359375 3.81746094 2.3371875 3.19742187 1.609375 2.55859375 C1.07828125 2.04425781 0.5471875 1.52992188 0 1 C0 0.67 0 0.34 0 0 Z " fill="#E8E1FD" transform="translate(99,294)"/>
<path d="M0 0 C-0.56460938 0.27714844 -1.12921875 0.55429688 -1.7109375 0.83984375 C-4.05016952 2.02542722 -6.33713228 3.28083497 -8.625 4.5625 C-10.73686045 5.74472089 -12.83530002 6.91765001 -15 8 C-14.061813 4.52870808 -13.33978548 3.22915765 -10.3125 1.1875 C-6.66318504 -0.12074498 -3.84760458 -0.23085627 0 0 Z " fill="#6F5ADB" transform="translate(194,170)"/>
<path d="M0 0 C-1 2 -1 2 -2.92578125 2.8515625 C-4.10720703 3.23441406 -4.10720703 3.23441406 -5.3125 3.625 C-6.09238281 3.88539062 -6.87226562 4.14578125 -7.67578125 4.4140625 C-10 5 -10 5 -14 5 C-11.85073619 2.60894402 -10.00963087 1.36721146 -7 0.25 C-5.9790625 -0.14445312 -5.9790625 -0.14445312 -4.9375 -0.546875 C-3 -1 -3 -1 0 0 Z " fill="#745CEF" transform="translate(123,90)"/>
<path d="M0 0 C0.91007813 0.00902344 1.82015625 0.01804688 2.7578125 0.02734375 C3.45648438 0.03894531 4.15515625 0.05054688 4.875 0.0625 C4.875 0.7225 4.875 1.3825 4.875 2.0625 C-3.69642857 3.49107143 -3.69642857 3.49107143 -7.125 1.0625 C-4.60024538 -0.19987731 -2.81299534 -0.03606404 0 0 Z " fill="#F2ECFC" transform="translate(195.125,170.9375)"/>
<path d="M0 0 C0 3.10551666 -0.5393715 4.35261084 -2 7 C-2.66 7 -3.32 7 -4 7 C-4 7.66 -4 8.32 -4 9 C-4.66 9 -5.32 9 -6 9 C-6 9.99 -6 10.98 -6 12 C-6.66 12 -7.32 12 -8 12 C-6.64994369 6.32976351 -4.1842771 3.82042691 0 0 Z " fill="#7662E0" transform="translate(167,164)"/>
<path d="M0 0 C6.27 0 12.54 0 19 0 C19.33 0.99 19.66 1.98 20 3 C19.42024414 2.84152588 18.84048828 2.68305176 18.24316406 2.51977539 C14.78779602 1.71911382 11.28089697 1.62776918 7.75 1.4375 C7.00492187 1.39431641 6.25984375 1.35113281 5.4921875 1.30664062 C3.661651 1.20103275 1.83084824 1.10005799 0 1 C0 0.67 0 0.34 0 0 Z " fill="#6C56E1" transform="translate(272,169)"/>
<path d="M0 0 C2.97 0.99 5.94 1.98 9 3 C9 3.99 9 4.98 9 6 C7.68 6 6.36 6 5 6 C5 5.01 5 4.02 5 3 C3.35 2.67 1.7 2.34 0 2 C0 1.34 0 0.68 0 0 Z " fill="#F0EAFD" transform="translate(286,249)"/>
<path d="M0 0 C2.38672669 2.96283313 4.7353371 5.94270509 7 9 C6.01 9 5.02 9 4 9 C0.8217901 5.7309841 0 4.67834007 0 0 Z " fill="#EBE4FE" transform="translate(159,227)"/>
<path d="M0 0 C2.31 0.66 4.62 1.32 7 2 C7 2.66 7 3.32 7 4 C5.35 4.33 3.7 4.66 2 5 C1.34 3.35 0.68 1.7 0 0 Z " fill="#FAFBF0" transform="translate(168,243)"/>
<path d="M0 0 C1.98 0.99 3.96 1.98 6 3 C6 2.34 6 1.68 6 1 C6.99 1 7.98 1 9 1 C9 1.99 9 2.98 9 4 C6.1875 4.6875 6.1875 4.6875 3 5 C1.125 3.6875 1.125 3.6875 0 2 C0 1.34 0 0.68 0 0 Z " fill="#674FE5" transform="translate(165,233)"/>
<path d="M0 0 C0.66 0 1.32 0 2 0 C2 0.66 2 1.32 2 2 C2.99 2.33 3.98 2.66 5 3 C5 3.66 5 4.32 5 5 C5.66 5.33 6.32 5.66 7 6 C4.625 6.1875 4.625 6.1875 2 6 C0 3 0 3 0 0 Z " fill="#F9FBEB" transform="translate(296,178)"/>
<path d="M0 0 C4.875 2.625 4.875 2.625 6 6 C4.68 6.33 3.36 6.66 2 7 C1.34 4.69 0.68 2.38 0 0 Z " fill="#EBE3FD" transform="translate(299,176)"/>
<path d="M0 0 C0.66 0.33 1.32 0.66 2 1 C2 3.83967231 1.59732819 6.23735711 1 9 C0.34 9 -0.32 9 -1 9 C-1.09765625 2.84765625 -1.09765625 2.84765625 -1 1 C-0.67 0.67 -0.34 0.34 0 0 Z " fill="#F9FAEF" transform="translate(297,136)"/>
<path d="M0 0 C0.66 0.33 1.32 0.66 2 1 C-0.88341534 5.21422242 -3.04303419 6.76075855 -8 8 C-5.58443874 4.80800833 -3.31996462 2.25283313 0 0 Z " fill="#E0D6FD" transform="translate(109,96)"/>
<path d="M0 0 C1.33332095 2.6666419 0.67102033 4.16680303 0 7 C-1.32 7.33 -2.64 7.66 -4 8 C-3.40072174 4.64404172 -2.15377564 2.62198774 0 0 Z " fill="#E7E0FD" transform="translate(100,104)"/>
<path d="M0 0 C5.445 1.485 5.445 1.485 11 3 C11 3.33 11 3.66 11 4 C3.57142857 4.28571429 3.57142857 4.28571429 0 2 C0 1.34 0 0.68 0 0 Z " fill="#7660E8" transform="translate(117,307)"/>
<path d="M0 0 C0.99 0.66 1.98 1.32 3 2 C1.02 3.32 -0.96 4.64 -3 6 C-3 4.68 -3 3.36 -3 2 C-2.01 1.34 -1.02 0.68 0 0 Z " fill="#EEEBF8" transform="translate(168,160)"/>
</svg>
